<?xml version="1.0" encoding="UTF-8"?>
<svg version="1.1" xmlns="http://www.w3.org/2000/svg" width="879" height="282">
<path d="M0 0 C265.32 0 530.64 0 804 0 C804 64.35 804 128.7 804 195 C514.26 195 224.52 195 -74 195 C-74 140.88 -74 86.76 -74 31 C-65.75 31 -57.5 31 -49 31 C-42.25170068 41.12244898 -42.25170068 41.12244898 -39.66015625 45.65234375 C-38.78967651 47.16803955 -38.78967651 47.16803955 -37.90161133 48.71435547 C-37.29470459 49.77799316 -36.68779785 50.84163086 -36.0625 51.9375 C-35.07321889 53.66101799 -34.08393369 55.38453365 -33.09440613 57.10791016 C-32.07295762 58.88791106 -31.05286669 60.66868311 -30.03320312 62.44970703 C-26.80046981 68.0957897 -23.55780645 73.7361368 -20.3125 79.375 C-19.7563501 80.3455835 -19.2002002 81.31616699 -18.62719727 82.31616211 C-12.88511867 92.29661813 -6.92804283 102.11992861 -1 112 C-0.67 75.04 -0.34 38.08 0 0 Z M657.82173157 20.0634613 C656.32873811 20.06574206 654.83574463 20.0680133 653.34275115 20.0702762 C651.00514261 20.07382056 648.66753408 20.07737041 646.3299256 20.08094953 C638.04146798 20.09363439 629.75300935 20.10560258 621.46455069 20.11757918 C606.18609533 20.13967392 590.90764077 20.16227491 575.62918663 20.18519592 C560.56792933 20.20778932 545.5066717 20.23013834 530.44541359 20.25218201 C529.02472266 20.25426153 529.02472266 20.25426153 527.57533091 20.25638306 C522.76260987 20.26342641 517.94988883 20.2704656 513.13716779 20.27750319 C479.31580976 20.32696723 445.4944525 20.3769475 411.6730957 20.42724609 C378.87817422 20.47601697 346.08325239 20.52454483 313.28833008 20.57275391 C312.27204118 20.57424796 311.25575229 20.57574202 310.20866676 20.57728135 C299.99986174 20.59228915 289.79105671 20.60729211 279.58225168 20.62229155 C258.79782045 20.65282948 238.01338928 20.6833996 217.22895813 20.71398926 C216.27395857 20.71539475 215.318959 20.71680024 214.33502006 20.71824832 C185.1463354 20.76120749 155.95765094 20.80430264 126.76896667 20.84753418 C125.94255569 20.84875813 125.11614471 20.84998208 124.26469097 20.85124312 C90.84312719 20.90074392 57.42156362 20.95039021 24 21 C24 67.2 24 113.4 24 161 C15.75 160.67 7.5 160.34 -1 160 C-8.80059145 149.69207558 -8.80059145 149.69207558 -10.91015625 144.6953125 C-13.92599143 137.9719093 -17.54063467 131.76552232 -21.33486938 125.46429443 C-23.16740976 122.40743997 -24.96106784 119.32798186 -26.7578125 116.25 C-27.47027037 115.03248932 -28.18283485 113.81504103 -28.89550781 112.59765625 C-32.20434448 106.94195621 -35.50973341 101.28424724 -38.8125 95.625 C-39.380896 94.65127441 -39.94929199 93.67754883 -40.53491211 92.67431641 C-43.37977511 87.7958057 -46.20757267 82.90872213 -49 78 C-49.33 78 -49.66 78 -50 78 C-50 109.68 -50 141.36 -50 174 C226.54 174 503.08 174 788 174 C788 123.18 788 72.36 788 20 C722.91080588 19.99763074 722.91080588 19.99763074 657.82173157 20.0634613 Z " fill="#050505" transform="translate(74,0)"/>
<path d="M0 0 C80.77183735 0 80.77183735 0 91.484375 9.359375 C99.95725668 18.53105104 101.64295951 29.00883613 101.31640625 41.015625 C100.67451294 49.09872592 97.78627766 57.14029242 92 63 C85.86156027 67.97425288 79.05724074 72 71 72 C71 72.66 71 73.32 71 74 C71.74894531 74.26425781 72.49789062 74.52851562 73.26953125 74.80078125 C88.00205496 81.2712888 96.95955358 103.80867318 104.73046875 117.0715332 C105.07146103 117.65293564 105.41245331 118.23433807 105.76377869 118.83335876 C106.70302038 120.43657886 107.63978946 122.04124678 108.57641602 123.64599609 C109.79776467 125.87748228 109.79776467 125.87748228 111 127 C113.39641589 120.52104867 115.79213666 114.04184054 118.1875 107.5625 C118.55915283 106.55725281 118.93080566 105.55200562 119.3137207 104.51629639 C124.04676494 91.71309498 128.77276211 78.90732318 133.48828125 66.09765625 C133.95207831 64.83791458 134.41587938 63.57817439 134.87968445 62.31843567 C137.12155705 56.22901625 139.36253754 50.13927003 141.60229492 44.04907227 C147.01297369 29.34495102 152.48518171 14.66541397 158 0 C167.24 0 176.48 0 186 0 C187.11375 2.97773437 188.2275 5.95546875 189.375 9.0234375 C196.95000188 29.26391787 204.54545688 49.49592797 212.25 69.6875 C212.90107454 71.39508838 213.55211634 73.10268924 214.203125 74.81030273 C216.81594867 81.6620674 219.43012557 88.51330187 222.05273438 95.36132812 C223.72447162 99.72675192 225.39154765 104.09393006 227.05554199 108.46231079 C227.67976562 110.09824545 228.30579227 111.73349339 228.93371582 113.36801147 C229.79367957 115.6069217 230.64754863 117.84806461 231.5 120.08984375 C231.75537537 120.75018616 232.01075073 121.41052856 232.27386475 122.09088135 C233.33310743 124.89347839 234 126.97324477 234 130 C225.09 130 216.18 130 207 130 C203.02357374 120.45657697 199.44093011 110.74930197 196 101 C180.16 100.67 164.32 100.34 148 100 C147.01 103.63 146.02 107.26 145 111 C143.80779772 114.41832731 142.59535811 117.80493257 141.3125 121.1875 C140.99216797 122.04408203 140.67183594 122.90066406 140.34179688 123.78320312 C139.56551952 125.85713814 138.78491815 127.92932344 138 130 C130.6897347 130.23238306 123.38027313 130.40971275 116.06705379 130.51812172 C112.67040422 130.57017493 109.27629218 130.64066831 105.88110352 130.75439453 C101.97183368 130.88451086 98.06356651 130.93247497 94.15234375 130.9765625 C92.94166733 131.02817535 91.73099091 131.07978821 90.48362732 131.13296509 C82.22124713 131.13843621 82.22124713 131.13843621 78.75669861 127.90881348 C76.94127364 125.35016626 75.44279184 122.7831113 74 120 C73.33572998 118.97165039 72.67145996 117.94330078 71.98706055 116.88378906 C71.45894775 116.01979492 70.93083496 115.15580078 70.38671875 114.265625 C69.48167603 112.79561035 69.48167603 112.79561035 68.55834961 111.29589844 C67.94096924 110.29075195 67.32358887 109.28560547 66.6875 108.25 C60.24807639 97.87876443 60.24807639 97.87876443 53.4375 87.75 C52.71433594 86.71359375 51.99117188 85.6771875 51.24609375 84.609375 C43.73099509 75.87879082 38.36897316 77.45517331 26 76 C26 93.82 26 111.64 26 130 C17.42 130 8.84 130 0 130 C0 87.1 0 44.2 0 0 Z M26 23 C26 33.23 26 43.46 26 54 C30.98099986 54.06918055 35.9603073 54.12881819 40.94140625 54.16479492 C42.63287022 54.17980505 44.32429578 54.20021963 46.015625 54.22631836 C48.45843024 54.26304686 50.9007173 54.27980411 53.34375 54.29296875 C54.08991577 54.30845261 54.83608154 54.32393646 55.6048584 54.33988953 C61.0290517 54.34159625 65.04907048 53.25623417 70 51 C73.5884585 47.13550623 74.74660266 43.45505304 75.09375 38.30859375 C74.93734099 34.45702195 74.06316943 31.26853366 72 28 C66.30387834 23.37190115 61.71610637 22.85616388 54.61328125 22.90234375 C53.79627243 22.9037587 52.97926361 22.90517365 52.13749695 22.90663147 C49.52912732 22.91222706 46.92084366 22.92477871 44.3125 22.9375 C42.54362103 22.94251557 40.77474072 22.94707838 39.00585938 22.95117188 C34.67051318 22.96134397 30.33535278 22.98092021 26 23 Z M171 33 C168.85942679 39.08572077 166.72367311 45.17311693 164.59130859 51.26171875 C163.86488724 53.33405099 163.13735141 55.40599291 162.40869141 57.47753906 C161.36329634 60.45015904 160.32187894 63.42414624 159.28125 66.3984375 C158.95314331 67.32868744 158.62503662 68.25893738 158.2869873 69.21737671 C157.98667603 70.07811798 157.68636475 70.93885925 157.37695312 71.82568359 C157.11047974 72.58513275 156.84400635 73.34458191 156.56945801 74.12704468 C155.90303525 75.99264977 155.90303525 75.99264977 156 78 C166.56 78 177.12 78 188 78 C182.24208738 60.50064883 182.24208738 60.50064883 176.125 43.125 C175.83939209 42.32989014 175.55378418 41.53478027 175.25952148 40.71557617 C173.73271061 36.49526666 173.73271061 36.49526666 171 33 Z " fill="#050505" transform="translate(246,31)"/>
<path d="M0 0 C9.24 0 18.48 0 28 0 C28.94617188 2.55878906 29.89234375 5.11757813 30.8671875 7.75390625 C38.18042625 27.50203593 45.57660696 47.21547339 53.125 66.875 C53.87860362 68.83893978 54.63218442 70.80288832 55.38574219 72.7668457 C56.86632271 76.62491931 58.34718223 80.48288574 59.828125 84.34082031 C62.95679121 92.49253908 66.0853102 100.64425728 69.19232178 108.80426025 C69.80885097 110.42096998 70.42718769 112.03699169 71.04742432 113.65228271 C71.89300954 115.85500007 72.73244544 118.05996256 73.5703125 120.265625 C73.81934326 120.9101059 74.06837402 121.55458679 74.32495117 122.21859741 C75.36819372 124.98321844 76 127.01338086 76 130 C67.09 130 58.18 130 49 130 C45.02357374 120.45657697 41.44093011 110.74930197 38 101 C22.16 100.67 6.32 100.34 -10 100 C-10.99 103.63 -11.98 107.26 -13 111 C-14.19276704 114.41994661 -15.40447659 117.80370535 -16.6875 121.1875 C-18.3271875 125.5496875 -18.3271875 125.5496875 -20 130 C-28.91 130 -37.82 130 -47 130 C-46.33063305 125.98379831 -45.82241034 123.11128621 -44.44384766 119.46240234 C-44.12414505 118.60769348 -43.80444244 117.75298462 -43.47505188 116.87237549 C-43.12492538 115.95285095 -42.77479889 115.03332642 -42.4140625 114.0859375 C-42.04520432 113.1032489 -41.67634613 112.1205603 -41.29631042 111.10809326 C-40.49627854 108.9779553 -39.69385451 106.84871458 -38.88931274 104.72027588 C-36.72347859 98.98964254 -34.57535327 93.25237381 -32.42578125 87.515625 C-31.97976059 86.3265152 -31.53373993 85.1374054 -31.07420349 83.91226196 C-25.84079461 69.94073914 -20.73590322 55.92248194 -15.64068604 41.90008545 C-10.54800779 27.88482845 -5.34056283 13.92296223 0 0 Z M13 33 C10.85942679 39.08572077 8.72367311 45.17311693 6.59130859 51.26171875 C5.86488724 53.33405099 5.13735141 55.40599291 4.40869141 57.47753906 C3.36329634 60.45015904 2.32187894 63.42414624 1.28125 66.3984375 C0.95314331 67.32868744 0.62503662 68.25893738 0.2869873 69.21737671 C-0.01332397 70.07811798 -0.31363525 70.93885925 -0.62304688 71.82568359 C-0.88952026 72.58513275 -1.15599365 73.34458191 -1.43054199 74.12704468 C-2.09696475 75.99264977 -2.09696475 75.99264977 -2 78 C8.56 78 19.12 78 30 78 C25.03366984 62.83495613 19.83219854 47.85241558 14 33 C13.67 33 13.34 33 13 33 Z " fill="#050505" transform="translate(158,31)"/>
<path d="M0 0 C111.54 0 223.08 0 338 0 C338 3.63 338 7.26 338 11 C226.46 11 114.92 11 0 11 C0 7.37 0 3.74 0 0 Z " fill="#050505" transform="translate(496,103)"/>
<path d="M0 0 C9 0 9 0 11.30004883 1.9934082 C11.84685303 2.91984131 12.39365723 3.84627441 12.95703125 4.80078125 C13.58931641 5.83275635 14.22160156 6.86473145 14.87304688 7.92797852 C15.83307617 9.60331665 15.83307617 9.60331665 16.8125 11.3125 C17.84620218 13.02313013 18.87991895 14.73375263 19.91574097 16.44309998 C20.95673554 18.17138405 21.98295306 19.90773111 23.00634766 21.64648438 C25.35402597 25.59550585 27.79650806 29.47651403 30.26831055 33.34863281 C32.52758627 36.88932208 34.76139094 40.44620811 37 44 C37.33 29.48 37.66 14.96 38 0 C40.64 0 43.28 0 46 0 C46 20.13 46 40.26 46 61 C37 61 37 61 34.69995117 59.0065918 C34.15314697 58.08015869 33.60634277 57.15372559 33.04296875 56.19921875 C32.09454102 54.6512561 32.09454102 54.6512561 31.12695312 53.07202148 C30.16692383 51.39668335 30.16692383 51.39668335 29.1875 49.6875 C28.15379782 47.97686987 27.12008105 46.26624737 26.08425903 44.55690002 C25.04326446 42.82861595 24.01704694 41.09226889 22.99365234 39.35351562 C20.64597403 35.40449415 18.20349194 31.52348597 15.73168945 27.65136719 C13.47241373 24.11067792 11.23860906 20.55379189 9 17 C8.67 31.52 8.34 46.04 8 61 C5.36 61 2.72 61 0 61 C0 40.87 0 20.74 0 0 Z " fill="#050505" transform="translate(656,32)"/>
<path d="M0 0 C4.56782464 4.36922357 5.85759016 7.97638448 7 14 C4.36 14.66 1.72 15.32 -1 16 C-1.24234375 15.45730469 -1.4846875 14.91460937 -1.734375 14.35546875 C-4.29462286 8.7788472 -4.29462286 8.7788472 -9 5 C-14.75386207 3.08204598 -20.80606817 3.10696516 -26.375 5.625 C-31.45238383 8.56292169 -33.77237083 12.55838934 -35.3125 18.125 C-36.79190238 26.02847399 -36.23475678 34.34353846 -32.16015625 41.3828125 C-28.72661157 46.16896569 -24.69592002 47.97286688 -19 49 C-12.18852172 49.09871708 -7.67416189 47.66456289 -2 44 C-1.34 44 -0.68 44 0 44 C0 40.37 0 36.74 0 33 C-5.61 33 -11.22 33 -17 33 C-17 30.69 -17 28.38 -17 26 C-8.75 26 -0.5 26 8 26 C9.20029821 47.36530815 9.20029821 47.36530815 5.94921875 51.79296875 C3.29031152 53.32528714 0.96278058 54.22578434 -2 55 C-2.8765625 55.35191406 -3.753125 55.70382813 -4.65625 56.06640625 C-13.42645587 59.55987159 -22.4633199 58.45930828 -31 55 C-37.74250425 51.55034666 -41.28441311 46.17158496 -44.11328125 39.29296875 C-46.57195814 30.1622876 -46.41598708 18.562429 -42.18359375 10.0390625 C-41.79300781 9.36617187 -41.40242187 8.69328125 -41 8 C-40.66097656 7.34773438 -40.32195313 6.69546875 -39.97265625 6.0234375 C-36.2250675 -0.24477145 -29.89388989 -2.81490308 -23.125 -4.875 C-14.88186552 -5.20472538 -6.87763103 -4.99466012 0 0 Z " fill="#040404" transform="translate(757,36)"/>
<path d="M0 0 C4.91556038 4.58785636 5.90437723 8.42626341 7 15 C4.03 15 1.06 15 -2 15 C-2.37125 13.906875 -2.7425 12.81375 -3.125 11.6875 C-4.39204282 8.77624811 -4.99167481 8.00600188 -7.6875 6.0625 C-13.12939185 4.31698752 -17.13533897 4.22023266 -22.4375 6.4375 C-24.84753488 7.76900154 -24.84753488 7.76900154 -26 9 C-26.41692853 12.41600593 -26.41692853 12.41600593 -26 16 C-22.62027518 19.62177407 -17.88007284 20.24170946 -13.25 21.375 C-5.2766289 23.47029085 0.72017008 25.55617859 6.5 31.625 C8.94566719 37.12775117 9.21462745 42.63598571 7.15234375 48.34765625 C4.29778393 53.52456983 0.55343849 56.13833596 -5 58 C-12.70045974 59.99215874 -22.31262017 59.48589397 -29.28125 55.42578125 C-33.76094747 51.70966858 -37.01542493 46.73080048 -37.875 40.9375 C-37.91625 39.968125 -37.9575 38.99875 -38 38 C-35.36 37.67 -32.72 37.34 -30 37 C-29.32845067 38.28913487 -28.66291141 39.58140204 -28 40.875 C-27.62875 41.59429687 -27.2575 42.31359375 -26.875 43.0546875 C-26 45 -26 45 -26 47 C-18.89079128 49.88211164 -12.96565967 51.51416097 -5.5625 48.6875 C-2.78178314 47.09498436 -2.78178314 47.09498436 -1 44 C-0.41654524 41.04253508 -0.41654524 41.04253508 -1 38 C-5.12096905 33.73778806 -9.90317474 32.550804 -15.4375 31 C-22.58821578 28.98696014 -27.71128253 26.85599149 -33.375 21.9375 C-35.90135221 17.37063255 -35.70199999 13.09681243 -35 8 C-33.94328944 4.40057966 -32.2985165 1.88646116 -29.12890625 -0.27734375 C-19.93323399 -5.16200141 -9.08830406 -5.27121636 0 0 Z " fill="#040404" transform="translate(529,35)"/>
<path d="M0 0 C10 0 10 0 12.12573242 1.56958008 C12.7344519 2.65855591 12.7344519 2.65855591 13.35546875 3.76953125 C14.07186523 4.98092773 14.07186523 4.98092773 14.80273438 6.21679688 C15.25970703 7.07337891 15.71667969 7.92996094 16.1875 8.8125 C17.13878865 10.4651514 18.09061689 12.11749231 19.04296875 13.76953125 C20.01878906 15.49558594 20.99460938 17.22164062 22 19 C24.31 22.63 26.62 26.26 29 30 C29.33 20.1 29.66 10.2 30 0 C32.97 0 35.94 0 39 0 C39 16.17 39 32.34 39 49 C28 49 28 49 25.63720703 47.10742188 C25.18200684 46.23666016 24.72680664 45.36589844 24.2578125 44.46875 C23.46503906 43.03402344 23.46503906 43.03402344 22.65625 41.5703125 C22.1509375 40.55710937 21.645625 39.54390625 21.125 38.5 C20.06556528 36.53100182 19.00567665 34.5622478 17.9453125 32.59375 C17.49687988 31.71396484 17.04844727 30.83417969 16.58642578 29.92773438 C14.56020427 26.18836098 12.25411528 22.60658444 10 19 C9.67 28.9 9.34 38.8 9 49 C6.03 49 3.06 49 0 49 C0 32.83 0 16.66 0 0 Z " fill="#373334" transform="translate(126,219)"/>
<path d="M0 0 C13.86 0 27.72 0 42 0 C42 2.64 42 5.28 42 8 C30.78 8 19.56 8 8 8 C8 13.94 8 19.88 8 26 C18.23 26 28.46 26 39 26 C39 28.31 39 30.62 39 33 C28.77 33 18.54 33 8 33 C8 39.6 8 46.2 8 53 C19.55 53 31.1 53 43 53 C43 55.64 43 58.28 43 61 C28.81 61 14.62 61 0 61 C0 40.87 0 20.74 0 0 Z " fill="#050505" transform="translate(547,32)"/>
<path d="M0 0 C2.97 0 5.94 0 9 0 C9.01458252 1.26593994 9.02916504 2.53187988 9.04418945 3.83618164 C9.10236122 8.55342204 9.17959293 13.27019451 9.26245117 17.98706055 C9.29561184 20.02474345 9.32367112 22.06251624 9.34643555 24.1003418 C9.38014462 27.03733463 9.43246874 29.97351023 9.48828125 32.91015625 C9.49467117 33.81459976 9.5010611 34.71904327 9.50764465 35.65089417 C9.63418168 41.15089306 10.29748009 45.16389096 13 50 C17.68900323 52.79536731 21.58896422 53.59029481 27 53 C30.32757647 51.78415475 32.36755382 50.75880359 34.63989258 48.0324707 C36.6257378 43.60486642 36.47970113 39.4707378 36.51171875 34.66796875 C36.52966995 33.67622147 36.54762115 32.68447418 36.56611633 31.66267395 C36.62016968 28.50432549 36.65409952 25.34612775 36.6875 22.1875 C36.72067742 20.04229676 36.75516747 17.89711339 36.79101562 15.75195312 C36.87589354 10.5014109 36.94272882 5.25091299 37 0 C39.97 0 42.94 0 46 0 C46.04972466 5.81663796 46.08587252 11.63315004 46.10986328 17.44995117 C46.1198729 19.42555906 46.13348469 21.40115231 46.15087891 23.37670898 C46.17535009 26.22904082 46.18653376 29.08117547 46.1953125 31.93359375 C46.20563507 32.80584091 46.21595764 33.67808807 46.22659302 34.57676697 C46.22818532 43.4330068 45.35003971 50.77936735 39.0546875 57.3359375 C34.16061268 61.29957985 28.2419111 62.52333057 22.03515625 62.21484375 C14.47429922 61.41667266 9.08078743 59.99201561 4 54 C-0.37862338 46.26443203 -0.15471405 37.48399521 -0.09765625 28.80859375 C-0.0962413 27.97787857 -0.09482635 27.14716339 -0.09336853 26.29127502 C-0.0878317 23.67331125 -0.07529162 21.05543733 -0.0625 18.4375 C-0.05747681 16.64778771 -0.05291535 14.85807405 -0.04882812 13.06835938 C-0.03788308 8.71220567 -0.02066319 4.356118 0 0 Z " fill="#050505" transform="translate(599,32)"/>
<path d="M0 0 C3.125 1.5 3.125 1.5 5 3 C5.33 2.34 5.66 1.68 6 1 C8.97 1 11.94 1 15 1 C15.09911689 6.87153231 15.17158611 12.74257413 15.21972656 18.61474609 C15.23980169 20.61092618 15.26706789 22.60704775 15.30175781 24.60302734 C15.35045657 27.4776862 15.37300986 30.3515654 15.390625 33.2265625 C15.41127014 34.11429352 15.43191528 35.00202454 15.45318604 35.91665649 C15.45517325 41.44448836 14.74470446 44.64752071 11 49 C6.65389975 51.89740017 2.73807569 51.36809044 -2.375 51.375 C-3.32117188 51.39949219 -4.26734375 51.42398438 -5.2421875 51.44921875 C-9.59881066 51.46757531 -12.27888904 51.41438999 -16.11328125 49.2109375 C-18.6369549 46.25358908 -18.77987655 43.81547314 -19 40 C-13.63736264 39.73626374 -13.63736264 39.73626374 -11 40 C-9.4375 41.4375 -9.4375 41.4375 -8 43 C-3.30317025 44.13071827 -0.32100896 44.22597431 4 42 C4.33 39.03 4.66 36.06 5 33 C4.21625 33.66 3.4325 34.32 2.625 35 C-1.65324785 37.82850984 -6.04579118 37.92639677 -11 37 C-15.73542216 34.67677618 -18.02647259 30.74210442 -20 26 C-20.74458025 19.78174874 -21.34646846 12.53164432 -18.375 6.8125 C-12.98115257 0.4250491 -8.15514717 -1.18052879 0 0 Z M-9 10 C-11.59370014 14.95160935 -11.21070727 19.69306648 -10 25 C-8.99963019 27.56008963 -8.99963019 27.56008963 -7 29 C-3.98004181 29.89956201 -1.89083064 30.20361843 1.1875 29.5 C3.99825112 27.17386114 5.20020245 24.47453032 6 21 C6.19391455 16.56979836 5.81784985 13.16835693 3.25 9.5 C-1.46044026 6.35970649 -4.58774733 6.30324776 -9 10 Z " fill="#373334" transform="translate(482,231)"/>
<path d="M0 0 C1.7634375 -0.01160156 1.7634375 -0.01160156 3.5625 -0.0234375 C8.48247398 0.54683221 11.7769124 2.18496882 15.3125 5.625 C17.32545481 8.90537081 17.70147665 11.56882735 18 15.375 C15.03 15.375 12.06 15.375 9 15.375 C8.34 13.725 7.68 12.075 7 10.375 C-0.02782042 9.3359283 -0.02782042 9.3359283 -7 10.375 C-7.05167527 12.79767086 -7.05167527 12.79767086 -6 15.375 C-2.75158079 17.17967734 0.41806284 18.19203957 3.95703125 19.3046875 C16.02451052 23.14366364 16.02451052 23.14366364 19.09375 28.1640625 C20.83490224 32.41187357 20.51576515 36.87674443 20 41.375 C18.10843975 45.53643255 15.57796365 48.53783592 11.45703125 50.68359375 C7.97031688 51.66475185 4.53460452 51.77409384 0.9375 51.8125 C0.25268555 51.82265137 -0.43212891 51.83280273 -1.13769531 51.84326172 C-7.42599537 51.73547096 -11.35424825 49.98417949 -15.8125 45.625 C-18.22737011 42.03719298 -18.83181334 39.6637599 -19 35.375 C-18 34.375 -18 34.375 -15.93359375 34.27734375 C-14.69802734 34.29474609 -14.69802734 34.29474609 -13.4375 34.3125 C-12.61121094 34.32152344 -11.78492188 34.33054688 -10.93359375 34.33984375 C-10.29550781 34.35144531 -9.65742187 34.36304688 -9 34.375 C-8.608125 35.32375 -8.21625 36.2725 -7.8125 37.25 C-6.28429778 40.42171814 -6.28429778 40.42171814 -3.8125 41.8125 C0.53148318 42.68129664 4.97523915 42.38738042 9 40.375 C9.40729228 38.05343403 9.74438677 35.7181213 10 33.375 C9.32195313 33.20484375 8.64390625 33.0346875 7.9453125 32.859375 C-10.56266198 28.04012403 -10.56266198 28.04012403 -16 21.375 C-17.85746073 17.66007853 -17.4421807 13.42936108 -17 9.375 C-13.47211794 1.91217257 -7.9510326 -0.05230943 0 0 Z " fill="#373334" transform="translate(583,217.625)"/>
<path d="M0 0 C1.7634375 -0.01160156 1.7634375 -0.01160156 3.5625 -0.0234375 C8.48247398 0.54683221 11.7769124 2.18496882 15.3125 5.625 C17.32545481 8.90537081 17.70147665 11.56882735 18 15.375 C15.03 15.375 12.06 15.375 9 15.375 C8.34 13.725 7.68 12.075 7 10.375 C-0.02782042 9.3359283 -0.02782042 9.3359283 -7 10.375 C-7.05167527 12.79767086 -7.05167527 12.79767086 -6 15.375 C-2.75158079 17.17967734 0.41806284 18.19203957 3.95703125 19.3046875 C16.02451052 23.14366364 16.02451052 23.14366364 19.09375 28.1640625 C20.83490224 32.41187357 20.51576515 36.87674443 20 41.375 C18.10843975 45.53643255 15.57796365 48.53783592 11.45703125 50.68359375 C7.97031688 51.66475185 4.53460452 51.77409384 0.9375 51.8125 C0.25268555 51.82265137 -0.43212891 51.83280273 -1.13769531 51.84326172 C-7.42599537 51.73547096 -11.35424825 49.98417949 -15.8125 45.625 C-18.22737011 42.03719298 -18.83181334 39.6637599 -19 35.375 C-18 34.375 -18 34.375 -15.93359375 34.27734375 C-14.69802734 34.29474609 -14.69802734 34.29474609 -13.4375 34.3125 C-12.61121094 34.32152344 -11.78492188 34.33054688 -10.93359375 34.33984375 C-10.29550781 34.35144531 -9.65742188 34.36304688 -9 34.375 C-8.608125 35.32375 -8.21625 36.2725 -7.8125 37.25 C-6.28429778 40.42171814 -6.28429778 40.42171814 -3.8125 41.8125 C0.53148318 42.68129664 4.97523915 42.38738042 9 40.375 C9.40729228 38.05343403 9.74438677 35.7181213 10 33.375 C9.32195312 33.20484375 8.64390625 33.0346875 7.9453125 32.859375 C-10.56266198 28.04012403 -10.56266198 28.04012403 -16 21.375 C-17.85746073 17.66007853 -17.4421807 13.42936108 -17 9.375 C-13.47211794 1.91217257 -7.9510326 -0.05230943 0 0 Z " fill="#373334" transform="translate(313,217.625)"/>
<path d="M0 0 C2.97 0 5.94 0 9 0 C9 16.17 9 32.34 9 49 C6.03 49 3.06 49 0 49 C-0.33 48.01 -0.66 47.02 -1 46 C-1.433125 46.474375 -1.86625 46.94875 -2.3125 47.4375 C-5.61279571 50.49332936 -9.4548788 50.34567181 -13.71875 50.26953125 C-18.0309711 49.76003937 -20.5417764 47.76713078 -23.25390625 44.48046875 C-27.28049189 38.04073771 -26.92451236 30.30045971 -26 23 C-24.44710559 18.69771878 -22.14737624 16.04902971 -18.8125 13 C-14.59684009 11.5010987 -10.41712028 11.29602146 -6 12 C-4.35 12.99 -2.7 13.98 -1 15 C-0.67 10.05 -0.34 5.1 0 0 Z M-15 22 C-17.73619011 27.09926339 -17.30145275 32.50183369 -16 38 C-14.01217872 40.9107383 -12.79144041 41.72299586 -9.5 42.875 C-6.47703761 43.02614812 -5.37397564 42.89918051 -3 41 C0.07111297 35.91677853 0.22413664 32.1716177 -0.3828125 26.33203125 C-1.10443554 23.60539229 -2.09116983 22.06484032 -4 20 C-8.65561574 18.48186443 -11.26741633 18.78583073 -15 22 Z " fill="#373334" transform="translate(674,219)"/>
<path d="M0 0 C4.49625 -0.0825 8.9925 -0.165 13.625 -0.25 C15.03217285 -0.28641602 16.4393457 -0.32283203 17.88916016 -0.36035156 C28.20473397 -0.45220358 28.20473397 -0.45220358 31.7109375 1.703125 C34.963155 4.96644222 36.77099398 7.31164191 37.3984375 11.9375 C37.39070313 12.948125 37.38296875 13.95875 37.375 15 C37.38660156 16.5159375 37.38660156 16.5159375 37.3984375 18.0625 C36.77286061 22.67459627 34.88790132 25.22037932 31.4375 28.25 C28.26308283 30.52906874 26.70505848 31.12468351 22.8671875 31.09765625 C22.14128418 31.09515869 21.41538086 31.09266113 20.66748047 31.09008789 C19.74596191 31.08098389 18.82444336 31.07187988 17.875 31.0625 C14.94625 31.041875 12.0175 31.02125 9 31 C9 36.94 9 42.88 9 49 C6.03 49 3.06 49 0 49 C0 32.83 0 16.66 0 0 Z M9 8 C9 12.95 9 17.9 9 23 C18.68460352 23.5596274 18.68460352 23.5596274 26.9375 19.1875 C28.20656421 17.02021098 28.20656421 17.02021098 27.875 14.4375 C26.92998805 11.80496672 26.23463642 10.65528624 24 9 C20.72245674 7.9221502 17.68281872 7.89663311 14.25 7.9375 C11.65125 7.9684375 11.65125 7.9684375 9 8 Z " fill="#373334" transform="translate(0,219)"/>
<path d="M0 0 C0.69480469 -0.02449219 1.38960937 -0.04898438 2.10546875 -0.07421875 C7.26607404 -0.10337471 10.16802341 1.11987247 14.125 4.375 C15.35186013 6.82872026 15.31416741 8.57791673 15.40625 11.3203125 C15.46232422 12.81304687 15.46232422 12.81304687 15.51953125 14.3359375 C15.57173828 15.90214844 15.57173828 15.90214844 15.625 17.5 C15.85289906 24.18503918 16.17185144 30.75061753 17.125 37.375 C13.825 37.375 10.525 37.375 7.125 37.375 C6.795 36.715 6.465 36.055 6.125 35.375 C5.526875 35.87 4.92875 36.365 4.3125 36.875 C-0.37937162 39.08293959 -4.77123018 38.95061314 -9.875 38.375 C-13.61530185 36.77201349 -14.60658465 35.77762302 -16.875 32.375 C-17.70088079 27.81092197 -17.28900472 24.25269 -15.3125 20.0625 C-10.90823277 15.4527859 -2.92140587 14.55648161 3.125 13.375 C4.115 13.375 5.105 13.375 6.125 13.375 C5.63794288 11.31097032 5.63794288 11.31097032 4.125 9.375 C0.26590895 8.46285121 -2.09103308 8.11367769 -5.875 9.375 C-6.205 10.035 -6.535 10.695 -6.875 11.375 C-9.515 11.375 -12.155 11.375 -14.875 11.375 C-15.625 9.6875 -15.625 9.6875 -15.875 7.375 C-11.65832218 0.81572339 -7.47109428 0.01370843 0 0 Z M-6.875 24.375 C-7.205 25.365 -7.535 26.355 -7.875 27.375 C-6.27295381 29.56212805 -6.27295381 29.56212805 -3.875 31.375 C0.02545589 31.21579772 1.85624169 30.55417221 5.125 28.375 C5.86106499 24.80730448 5.86106499 24.80730448 6.125 21.375 C1.50036203 20.94144019 -2.84896166 22.08918851 -6.875 24.375 Z " fill="#373334" transform="translate(861.875,230.625)"/>
<path d="M0 0 C0.69480469 -0.02449219 1.38960937 -0.04898438 2.10546875 -0.07421875 C7.26607404 -0.10337471 10.16802341 1.11987247 14.125 4.375 C15.35186013 6.82872026 15.31416741 8.57791673 15.40625 11.3203125 C15.46232422 12.81304687 15.46232422 12.81304687 15.51953125 14.3359375 C15.57173828 15.90214844 15.57173828 15.90214844 15.625 17.5 C15.85289906 24.18503918 16.17185144 30.75061753 17.125 37.375 C13.825 37.375 10.525 37.375 7.125 37.375 C6.795 36.715 6.465 36.055 6.125 35.375 C5.526875 35.87 4.92875 36.365 4.3125 36.875 C-0.37937162 39.08293959 -4.77123018 38.95061314 -9.875 38.375 C-13.61530185 36.77201349 -14.60658465 35.77762302 -16.875 32.375 C-17.70088079 27.81092197 -17.28900472 24.25269 -15.3125 20.0625 C-10.90823277 15.4527859 -2.92140587 14.55648161 3.125 13.375 C4.115 13.375 5.105 13.375 6.125 13.375 C5.63794288 11.31097032 5.63794288 11.31097032 4.125 9.375 C0.26590895 8.46285121 -2.09103308 8.11367769 -5.875 9.375 C-6.205 10.035 -6.535 10.695 -6.875 11.375 C-9.515 11.375 -12.155 11.375 -14.875 11.375 C-15.625 9.6875 -15.625 9.6875 -15.875 7.375 C-11.65832218 0.81572339 -7.47109428 0.01370843 0 0 Z M-6.875 24.375 C-7.205 25.365 -7.535 26.355 -7.875 27.375 C-6.27295381 29.56212805 -6.27295381 29.56212805 -3.875 31.375 C0.02545589 31.21579772 1.85624169 30.55417221 5.125 28.375 C5.86106499 24.80730448 5.86106499 24.80730448 6.125 21.375 C1.50036203 20.94144019 -2.84896166 22.08918851 -6.875 24.375 Z " fill="#373334" transform="translate(781.875,230.625)"/>
<path d="M0 0 C0.69480469 -0.02449219 1.38960937 -0.04898438 2.10546875 -0.07421875 C7.26607404 -0.10337471 10.16802341 1.11987247 14.125 4.375 C15.35186013 6.82872026 15.31416741 8.57791673 15.40625 11.3203125 C15.46232422 12.81304687 15.46232422 12.81304687 15.51953125 14.3359375 C15.57173828 15.90214844 15.57173828 15.90214844 15.625 17.5 C15.85289906 24.18503918 16.17185144 30.75061753 17.125 37.375 C13.825 37.375 10.525 37.375 7.125 37.375 C6.795 36.715 6.465 36.055 6.125 35.375 C5.526875 35.87 4.92875 36.365 4.3125 36.875 C-0.37937162 39.08293959 -4.77123018 38.95061314 -9.875 38.375 C-13.61530185 36.77201349 -14.60658465 35.77762302 -16.875 32.375 C-17.70088079 27.81092197 -17.28900472 24.25269 -15.3125 20.0625 C-10.90823277 15.4527859 -2.92140587 14.55648161 3.125 13.375 C4.115 13.375 5.105 13.375 6.125 13.375 C5.63794288 11.31097032 5.63794288 11.31097032 4.125 9.375 C0.26590895 8.46285121 -2.09103308 8.11367769 -5.875 9.375 C-6.205 10.035 -6.535 10.695 -6.875 11.375 C-9.515 11.375 -12.155 11.375 -14.875 11.375 C-15.625 9.6875 -15.625 9.6875 -15.875 7.375 C-11.65832218 0.81572339 -7.47109428 0.01370843 0 0 Z M-6.875 24.375 C-7.205 25.365 -7.535 26.355 -7.875 27.375 C-6.27295381 29.56212805 -6.27295381 29.56212805 -3.875 31.375 C0.02545589 31.21579772 1.85624169 30.55417221 5.125 28.375 C5.86106499 24.80730448 5.86106499 24.80730448 6.125 21.375 C1.50036203 20.94144019 -2.84896166 22.08918851 -6.875 24.375 Z " fill="#373334" transform="translate(705.875,230.625)"/>
<path d="M0 0 C0.69480469 -0.02449219 1.38960937 -0.04898438 2.10546875 -0.07421875 C7.26607404 -0.10337471 10.16802341 1.11987247 14.125 4.375 C15.35186013 6.82872026 15.31416741 8.57791673 15.40625 11.3203125 C15.46232422 12.81304687 15.46232422 12.81304687 15.51953125 14.3359375 C15.57173828 15.90214844 15.57173828 15.90214844 15.625 17.5 C15.85289906 24.18503918 16.17185144 30.75061753 17.125 37.375 C13.825 37.375 10.525 37.375 7.125 37.375 C6.795 36.715 6.465 36.055 6.125 35.375 C5.526875 35.87 4.92875 36.365 4.3125 36.875 C-0.37937162 39.08293959 -4.77123018 38.95061314 -9.875 38.375 C-13.61530185 36.77201349 -14.60658465 35.77762302 -16.875 32.375 C-17.70088079 27.81092197 -17.28900472 24.25269 -15.3125 20.0625 C-10.90823277 15.4527859 -2.92140587 14.55648161 3.125 13.375 C4.115 13.375 5.105 13.375 6.125 13.375 C5.63794288 11.31097032 5.63794288 11.31097032 4.125 9.375 C0.26590895 8.46285121 -2.09103308 8.11367769 -5.875 9.375 C-6.205 10.035 -6.535 10.695 -6.875 11.375 C-9.515 11.375 -12.155 11.375 -14.875 11.375 C-15.625 9.6875 -15.625 9.6875 -15.875 7.375 C-11.65832218 0.81572339 -7.47109428 0.01370843 0 0 Z M-6.875 24.375 C-7.205 25.365 -7.535 26.355 -7.875 27.375 C-6.27295381 29.56212805 -6.27295381 29.56212805 -3.875 31.375 C0.02545589 31.21579772 1.85624169 30.55417221 5.125 28.375 C5.86106499 24.80730448 5.86106499 24.80730448 6.125 21.375 C1.50036203 20.94144019 -2.84896166 22.08918851 -6.875 24.375 Z " fill="#373334" transform="translate(625.875,230.625)"/>
<path d="M0 0 C0.69480469 -0.02449219 1.38960937 -0.04898438 2.10546875 -0.07421875 C7.26607404 -0.10337471 10.16802341 1.11987247 14.125 4.375 C15.35186013 6.82872026 15.31416741 8.57791673 15.40625 11.3203125 C15.46232422 12.81304687 15.46232422 12.81304687 15.51953125 14.3359375 C15.57173828 15.90214844 15.57173828 15.90214844 15.625 17.5 C15.85289906 24.18503918 16.17185144 30.75061753 17.125 37.375 C13.825 37.375 10.525 37.375 7.125 37.375 C6.795 36.715 6.465 36.055 6.125 35.375 C5.526875 35.87 4.92875 36.365 4.3125 36.875 C-0.37937162 39.08293959 -4.77123018 38.95061314 -9.875 38.375 C-13.61530185 36.77201349 -14.60658465 35.77762302 -16.875 32.375 C-17.70088079 27.81092197 -17.28900472 24.25269 -15.3125 20.0625 C-10.90823277 15.4527859 -2.92140587 14.55648161 3.125 13.375 C4.115 13.375 5.105 13.375 6.125 13.375 C5.63794288 11.31097032 5.63794288 11.31097032 4.125 9.375 C0.26590895 8.46285121 -2.09103308 8.11367769 -5.875 9.375 C-6.205 10.035 -6.535 10.695 -6.875 11.375 C-9.515 11.375 -12.155 11.375 -14.875 11.375 C-15.625 9.6875 -15.625 9.6875 -15.875 7.375 C-11.65832218 0.81572339 -7.47109428 0.01370843 0 0 Z M-6.875 24.375 C-7.205 25.365 -7.535 26.355 -7.875 27.375 C-6.27295381 29.56212805 -6.27295381 29.56212805 -3.875 31.375 C0.02545589 31.21579772 1.85624169 30.55417221 5.125 28.375 C5.86106499 24.80730448 5.86106499 24.80730448 6.125 21.375 C1.50036203 20.94144019 -2.84896166 22.08918851 -6.875 24.375 Z " fill="#373334" transform="translate(253.875,230.625)"/>
<path d="M0 0 C0.69480469 -0.02449219 1.38960937 -0.04898438 2.10546875 -0.07421875 C7.26607404 -0.10337471 10.16802341 1.11987247 14.125 4.375 C15.35186013 6.82872026 15.31416741 8.57791673 15.40625 11.3203125 C15.46232422 12.81304687 15.46232422 12.81304687 15.51953125 14.3359375 C15.57173828 15.90214844 15.57173828 15.90214844 15.625 17.5 C15.85289906 24.18503918 16.17185144 30.75061753 17.125 37.375 C13.825 37.375 10.525 37.375 7.125 37.375 C6.795 36.715 6.465 36.055 6.125 35.375 C5.526875 35.87 4.92875 36.365 4.3125 36.875 C-0.37937162 39.08293959 -4.77123018 38.95061314 -9.875 38.375 C-13.61530185 36.77201349 -14.60658465 35.77762302 -16.875 32.375 C-17.70088079 27.81092197 -17.28900472 24.25269 -15.3125 20.0625 C-10.90823277 15.4527859 -2.92140587 14.55648161 3.125 13.375 C4.115 13.375 5.105 13.375 6.125 13.375 C5.63794288 11.31097032 5.63794288 11.31097032 4.125 9.375 C0.26590895 8.46285121 -2.09103308 8.11367769 -5.875 9.375 C-6.205 10.035 -6.535 10.695 -6.875 11.375 C-9.515 11.375 -12.155 11.375 -14.875 11.375 C-15.625 9.6875 -15.625 9.6875 -15.875 7.375 C-11.65832218 0.81572339 -7.47109428 0.01370843 0 0 Z M-6.875 24.375 C-7.205 25.365 -7.535 26.355 -7.875 27.375 C-6.27295381 29.56212805 -6.27295381 29.56212805 -3.875 31.375 C0.02545589 31.21579772 1.85624169 30.55417221 5.125 28.375 C5.86106499 24.80730448 5.86106499 24.80730448 6.125 21.375 C1.50036203 20.94144019 -2.84896166 22.08918851 -6.875 24.375 Z " fill="#373334" transform="translate(188.875,230.625)"/>
<path d="M0 0 C4.94586526 2.29629459 7.30760518 5.31323865 10 10 C11 13 11 13 11 22 C3.08 22.33 -4.84 22.66 -13 23 C-11.57423121 27.80959926 -11.57423121 27.80959926 -9.1875 29.375 C-6.38676076 30.17521121 -4.74565232 29.93930211 -2 29 C-1.34 28.01 -0.68 27.02 0 26 C2.1640625 25.70703125 2.1640625 25.70703125 4.625 25.8125 C5.85089844 25.85310547 5.85089844 25.85310547 7.1015625 25.89453125 C7.72804688 25.92933594 8.35453125 25.96414063 9 26 C9.495 27.485 9.495 27.485 10 29 C7.62891778 33.37738256 5.45753198 35.8282195 1 38 C-4.61342369 38.78872156 -10.85991818 39.03922106 -16.0625 36.5 C-20.90042701 32.38261531 -22.70494471 28.93714131 -23.34375 22.578125 C-23.52146334 15.55844805 -23.51730181 9.76789838 -18.46484375 4.35546875 C-12.23123388 -0.41140939 -7.79805799 -0.72468864 0 0 Z M-12 10 C-12.33 10.33 -12.66 10.66 -13 11 C-13 12.65 -13 14.3 -13 16 C-8.05 16 -3.1 16 2 16 C0.67857208 10.13834965 0.67857208 10.13834965 -2.5 8.125 C-6.74217093 6.21602308 -8.2341057 7.58596519 -12 10 Z " fill="#373334" transform="translate(362,231)"/>
<path d="M0 0 C14.85 0 29.7 0 45 0 C45 2.64 45 5.28 45 8 C39.06 8 33.12 8 27 8 C27 25.49 27 42.98 27 61 C24.03 61 21.06 61 18 61 C18 43.51 18 26.02 18 8 C12.06 8 6.12 8 0 8 C0 5.36 0 2.72 0 0 Z " fill="#050505" transform="translate(793,32)"/>
<path d="M0 0 C3.3 0 6.6 0 10 0 C12.31 6.93 14.62 13.86 17 21 C18.71700545 18.42449182 19.56997075 16.64422008 20.5078125 13.76953125 C20.77207031 12.96708984 21.03632812 12.16464844 21.30859375 11.33789062 C21.57800781 10.50451172 21.84742188 9.67113281 22.125 8.8125 C22.40214844 7.96751953 22.67929687 7.12253906 22.96484375 6.25195312 C23.64729604 4.169297 24.32418681 2.08481994 25 0 C28.3 0 31.6 0 35 0 C34.3309016 5.08735973 32.88972725 9.65341053 31.19921875 14.46875 C30.92157181 15.26728394 30.64392487 16.06581787 30.35786438 16.8885498 C29.77114969 18.57030705 29.18184067 20.25116121 28.59008789 21.93115234 C27.69152026 24.48855796 26.80730602 27.0506298 25.92382812 29.61328125 C25.34982823 31.25290896 24.77498611 32.89224211 24.19921875 34.53125 C23.93864182 35.29078979 23.67806488 36.05032959 23.40959167 36.83288574 C21.6815848 41.68528169 19.71079326 46.28920674 16 50 C13.64686445 50.07271741 11.29166332 50.08370868 8.9375 50.0625 C7.64714844 50.05347656 6.35679687 50.04445313 5.02734375 50.03515625 C4.02832031 50.02355469 3.02929688 50.01195312 2 50 C2 47.69 2 45.38 2 43 C3.11375 42.896875 4.2275 42.79375 5.375 42.6875 C6.57125 42.460625 7.7675 42.23375 9 42 C11.21222058 38.68166913 11.204831 37.40280383 10.60986328 33.57275391 C9.23817572 27.78618724 7.01747817 22.24950517 4.9375 16.6875 C4.00312104 14.17269302 3.07634508 11.65538905 2.15234375 9.13671875 C1.73976318 8.03030029 1.32718262 6.92388184 0.90209961 5.78393555 C0 3 0 3 0 0 Z " fill="#373434" transform="translate(725,232)"/>
<path d="M0 0 C2.92748453 1.21978522 4.37110875 2.0534897 6.11279297 4.67480469 C7.32286691 7.84617074 7.22404285 10.56294417 7.1953125 13.953125 C7.1924826 14.61334656 7.18965271 15.27356812 7.18673706 15.95379639 C7.17558415 18.05271897 7.15048946 20.15120742 7.125 22.25 C7.11496384 23.67707715 7.1058391 25.10416102 7.09765625 26.53125 C7.07566111 30.02097328 7.04116536 33.51044423 7 37 C4.03 37 1.06 37 -2 37 C-2.01981934 36.3294458 -2.03963867 35.6588916 -2.06005859 34.96801758 C-2.15559715 31.91579839 -2.26515945 28.86423659 -2.375 25.8125 C-2.4059375 24.75740234 -2.436875 23.70230469 -2.46875 22.61523438 C-2.50742187 21.59365234 -2.54609375 20.57207031 -2.5859375 19.51953125 C-2.63306885 18.11344604 -2.63306885 18.11344604 -2.68115234 16.67895508 C-3.02516598 13.78855565 -3.69013685 11.59657071 -5 9 C-7.30371421 7.82221688 -7.30371421 7.82221688 -10 8 C-12.82137181 8.99280504 -12.82137181 8.99280504 -15 11 C-15.90399209 14.34829001 -16.1680083 17.626479 -16.31640625 21.08203125 C-16.35830078 22.01337891 -16.40019531 22.94472656 -16.44335938 23.90429688 C-16.48267578 24.86400391 -16.52199219 25.82371094 -16.5625 26.8125 C-16.60568359 27.79154297 -16.64886719 28.77058594 -16.69335938 29.77929688 C-16.79902166 32.18604898 -16.89997465 34.59300703 -17 37 C-19.97 37 -22.94 37 -26 37 C-26 25.12 -26 13.24 -26 1 C-23.03 1 -20.06 1 -17 1 C-16.67 1.99 -16.34 2.98 -16 4 C-15.21625 3.34 -14.4325 2.68 -13.625 2 C-9.35534157 -0.84981952 -4.95563138 -0.68667346 0 0 Z " fill="#373334" transform="translate(832,231)"/>
<path d="M0 0 C2.92748453 1.21978522 4.37110875 2.0534897 6.11279297 4.67480469 C7.32286691 7.84617074 7.22404285 10.56294417 7.1953125 13.953125 C7.1924826 14.61334656 7.18965271 15.27356812 7.18673706 15.95379639 C7.17558415 18.05271897 7.15048946 20.15120742 7.125 22.25 C7.11496384 23.67707715 7.1058391 25.10416102 7.09765625 26.53125 C7.07566111 30.02097328 7.04116536 33.51044423 7 37 C4.03 37 1.06 37 -2 37 C-2.01981934 36.3294458 -2.03963867 35.6588916 -2.06005859 34.96801758 C-2.15559715 31.91579839 -2.26515945 28.86423659 -2.375 25.8125 C-2.4059375 24.75740234 -2.436875 23.70230469 -2.46875 22.61523438 C-2.50742187 21.59365234 -2.54609375 20.57207031 -2.5859375 19.51953125 C-2.63306885 18.11344604 -2.63306885 18.11344604 -2.68115234 16.67895508 C-3.02516598 13.78855565 -3.69013685 11.59657071 -5 9 C-7.30371421 7.82221688 -7.30371421 7.82221688 -10 8 C-12.82137181 8.99280504 -12.82137181 8.99280504 -15 11 C-15.90399209 14.34829001 -16.1680083 17.626479 -16.31640625 21.08203125 C-16.35830078 22.01337891 -16.40019531 22.94472656 -16.44335938 23.90429688 C-16.48267578 24.86400391 -16.52199219 25.82371094 -16.5625 26.8125 C-16.60568359 27.79154297 -16.64886719 28.77058594 -16.69335938 29.77929688 C-16.79902166 32.18604898 -16.89997465 34.59300703 -17 37 C-19.97 37 -22.94 37 -26 37 C-26 25.12 -26 13.24 -26 1 C-23.03 1 -20.06 1 -17 1 C-16.67 1.99 -16.34 2.98 -16 4 C-15.21625 3.34 -14.4325 2.68 -13.625 2 C-9.35534157 -0.84981952 -4.95563138 -0.68667346 0 0 Z " fill="#373334" transform="translate(448,231)"/>
<path d="M0 0 C2.97 0 5.94 0 9 0 C9.01981934 0.6705542 9.03963867 1.3411084 9.06005859 2.03198242 C9.15559715 5.08420161 9.26515945 8.13576341 9.375 11.1875 C9.4059375 12.24259766 9.436875 13.29769531 9.46875 14.38476562 C9.50742187 15.40634766 9.54609375 16.42792969 9.5859375 17.48046875 C9.6173584 18.41785889 9.6487793 19.35524902 9.68115234 20.32104492 C10.02516598 23.21144435 10.69013685 25.40342929 12 28 C14.30371421 29.17778312 14.30371421 29.17778312 17 29 C19.82137181 28.00719496 19.82137181 28.00719496 22 26 C22.90399209 22.65170999 23.1680083 19.373521 23.31640625 15.91796875 C23.35830078 14.98662109 23.40019531 14.05527344 23.44335938 13.09570312 C23.48267578 12.13599609 23.52199219 11.17628906 23.5625 10.1875 C23.60568359 9.20845703 23.64886719 8.22941406 23.69335938 7.22070312 C23.79902166 4.81395102 23.89997465 2.40699297 24 0 C26.97 0 29.94 0 33 0 C33 11.88 33 23.76 33 36 C30.03 36 27.06 36 24 36 C23.67 35.01 23.34 34.02 23 33 C22.21625 33.66 21.4325 34.32 20.625 35 C16.35973329 37.81992751 11.93970632 37.95271483 7 37 C3.88406805 35.30097071 1.61100338 33.22200675 0 30 C-0.08573394 27.74879258 -0.10712188 25.49500697 -0.09765625 23.2421875 C-0.0962413 22.57913605 -0.09482635 21.91608459 -0.09336853 21.23294067 C-0.08776754 19.11358137 -0.075215 16.99432741 -0.0625 14.875 C-0.05748512 13.43880361 -0.05292219 12.00260556 -0.04882812 10.56640625 C-0.03779782 7.04423655 -0.02053259 3.52212855 0 0 Z " fill="#373334" transform="translate(380,232)"/>
<path d="M0 0 C12.21 0 24.42 0 37 0 C37 2.64 37 5.28 37 8 C32.38 8 27.76 8 23 8 C23 21.53 23 35.06 23 49 C20.03 49 17.06 49 14 49 C14 35.47 14 21.94 14 8 C9.38 8 4.76 8 0 8 C0 5.36 0 2.72 0 0 Z " fill="#373435" transform="translate(43,219)"/>
<path d="M0 0 C0 3.96 0 7.92 0 12 C2.31 12 4.62 12 7 12 C7 14.31 7 16.62 7 19 C4.69 19 2.38 19 0 19 C0.13854088 22.29201643 0.28707024 25.58350709 0.4375 28.875 C0.47681641 29.81214844 0.51613281 30.74929687 0.55664062 31.71484375 C0.61948242 33.05869141 0.61948242 33.05869141 0.68359375 34.4296875 C0.72025146 35.25710449 0.75690918 36.08452148 0.79467773 36.93701172 C0.88238327 39.06179429 0.88238327 39.06179429 2 41 C3.98 41 5.96 41 8 41 C8.04241723 43.33294775 8.04092937 45.66702567 8 48 C6.28055699 49.71944301 4.09584777 49.29345984 1.75 49.375 C0.79609375 49.42398438 -0.1578125 49.47296875 -1.140625 49.5234375 C-4 49 -4 49 -6.83984375 47.27734375 C-10.21500747 42.15661615 -9.53033735 37.1696487 -9.3125 31.1875 C-9.28994141 30.01767578 -9.26738281 28.84785156 -9.24414062 27.64257812 C-9.18532091 24.76041231 -9.10317141 21.88086319 -9 19 C-10.32 19 -11.64 19 -13 19 C-13 16.69 -13 14.38 -13 12 C-11.68 12 -10.36 12 -9 12 C-9 9.36 -9 6.72 -9 4 C-2.25 0 -2.25 0 0 0 Z " fill="#373334" transform="translate(534,220)"/>
<path d="M0 0 C2.97 0 5.94 0 9 0 C9 20.13 9 40.26 9 61 C6.03 61 3.06 61 0 61 C0 40.87 0 20.74 0 0 Z " fill="#050505" transform="translate(776,32)"/>
<path d="M0 0 C6 0 6 0 7.62744141 1.55712891 C8.03140137 2.27304199 8.43536133 2.98895508 8.8515625 3.7265625 C9.31046875 4.51160156 9.769375 5.29664063 10.2421875 6.10546875 C10.69851563 6.93691406 11.15484375 7.76835937 11.625 8.625 C12.55381614 10.24268811 13.48348747 11.85988555 14.4140625 13.4765625 C14.8157666 14.19924316 15.2174707 14.92192383 15.63134766 15.66650391 C17.30310403 18.51677993 19.16706685 21.25060027 21 24 C21.33 16.08 21.66 8.16 22 0 C23.65 0 25.3 0 27 0 C27 11.88 27 23.76 27 36 C22 36 22 36 20.296875 34.3046875 C19.78640625 33.50289062 19.2759375 32.70109375 18.75 31.875 C18.16605469 30.9778125 17.58210937 30.080625 16.98046875 29.15625 C16.32691406 28.1146875 15.67335938 27.073125 15 26 C14.18547363 24.73836767 13.36897876 23.47800461 12.55078125 22.21875 C10.34607681 18.82530358 8.17511466 15.41325686 6 12 C5.67 19.92 5.34 27.84 5 36 C3.35 36 1.7 36 0 36 C0 24.12 0 12.24 0 0 Z " fill="#040404" transform="translate(761,123)"/>
<path d="M0 0 C15 0 15 0 22 2 C26.64642588 6.64642588 28.28720204 11.38185643 28.3125 17.875 C28.19438453 24.28473293 27.20495593 28.38161483 23 33.375 C16.38103255 38.75291106 8.92781086 36 0 36 C0 24.12 0 12.24 0 0 Z M5 5 C5 13.58 5 22.16 5 31 C8.96 31 12.92 31 17 31 C21.22676885 26.77323115 22.94879743 24.54435576 23.03515625 18.56640625 C22.71021568 13.23262567 22.05171629 9.80615772 18 6 C14.73289481 4.18010841 14.73289481 4.18010841 5 5 Z " fill="#040404" transform="translate(584,123)"/>
<path d="M0 0 C2.33001815 2.7809894 2.6934996 4.73382745 2.9375 8.3125 C1.2875 8.3125 -0.3625 8.3125 -2.0625 8.3125 C-2.3925 6.9925 -2.7225 5.6725 -3.0625 4.3125 C-4.64476965 4.11622609 -6.22839271 3.93084462 -7.8125 3.75 C-8.69421875 3.64558594 -9.5759375 3.54117188 -10.484375 3.43359375 C-12.94682451 3.31793324 -14.72788064 3.57611305 -17.0625 4.3125 C-16.7325 6.2925 -16.4025 8.2725 -16.0625 10.3125 C-15.02609375 10.62703125 -13.9896875 10.9415625 -12.921875 11.265625 C-11.55187869 11.69726767 -10.18209814 12.1295956 -8.8125 12.5625 C-8.13058594 12.76746094 -7.44867188 12.97242188 -6.74609375 13.18359375 C-2.56321253 14.52374016 0.16392304 15.87985524 2.9375 19.3125 C4.37054064 22.17858129 4.24394155 24.12550783 3.9375 27.3125 C1.79419497 31.29292363 0.156665 33.67588439 -4.0625 35.3125 C-9.30298972 35.99328869 -13.74215277 35.92551835 -18.5625 33.6875 C-21.34472239 31.04438872 -22.71785483 28.89822045 -24.0625 25.3125 C-24.0625 23.9925 -24.0625 22.6725 -24.0625 21.3125 C-22.4125 21.3125 -20.7625 21.3125 -19.0625 21.3125 C-18.4025 23.6225 -17.7425 25.9325 -17.0625 28.3125 C-13.03211634 29.65596122 -9.26411608 29.57926927 -5.0625 29.3125 C-2.95311215 28.28828739 -2.95311215 28.28828739 -2.0625 26.3125 C-2.02265091 24.64630979 -2.01887066 22.97859551 -2.0625 21.3125 C-2.76375 21.14234375 -3.465 20.9721875 -4.1875 20.796875 C-19.40943229 16.90866404 -19.40943229 16.90866404 -22.28125 12.3984375 C-23.53356266 9.05476271 -22.95933908 6.72048849 -22.0625 3.3125 C-16.29722824 -3.85513516 -7.95995642 -4.38609844 0 0 Z " fill="#040404" transform="translate(515.0625,124.6875)"/>
<path d="M0 0 C0.66 0.33 1.32 0.66 2 1 C1.25 7.625 1.25 7.625 -1 11 C-2.1446875 10.6596875 -2.1446875 10.6596875 -3.3125 10.3125 C-5.9421583 9.73747388 -5.9421583 9.73747388 -7.75 11 C-10.83903885 15.94246216 -10.26248124 23.19779684 -10.5625 28.9375 C-10.60568359 29.71673828 -10.64886719 30.49597656 -10.69335938 31.29882812 C-10.79828077 33.19907117 -10.8995245 35.09951669 -11 37 C-13.97 37 -16.94 37 -20 37 C-20 25.12 -20 13.24 -20 1 C-17.03 1 -14.06 1 -11 1 C-10.67 1.66 -10.34 2.32 -10 3 C-9.649375 2.505 -9.29875 2.01 -8.9375 1.5 C-6.02709013 -0.75322054 -3.57033034 -0.25966039 0 0 Z " fill="#373334" transform="translate(233,231)"/>
<path d="M0 0 C1.2065625 0.0309375 1.2065625 0.0309375 2.4375 0.0625 C5.97783374 7.65266889 9.21398742 15.32027548 12.25 23.125 C12.86004883 24.6709082 12.86004883 24.6709082 13.48242188 26.24804688 C13.86591797 27.22966797 14.24941406 28.21128906 14.64453125 29.22265625 C15.16237183 30.54728882 15.16237183 30.54728882 15.69067383 31.89868164 C16.4375 34.0625 16.4375 34.0625 16.4375 36.0625 C14.4575 36.0625 12.4775 36.0625 10.4375 36.0625 C9.1175 32.7625 7.7975 29.4625 6.4375 26.0625 C2.1475 25.7325 -2.1425 25.4025 -6.5625 25.0625 C-7.5525 28.6925 -8.5425 32.3225 -9.5625 36.0625 C-11.5425 36.0625 -13.5225 36.0625 -15.5625 36.0625 C-13.33323279 28.25785975 -10.69929302 20.63056684 -7.9375 13 C-7.53015625 11.86111328 -7.1228125 10.72222656 -6.703125 9.54882812 C-6.31382812 8.46923828 -5.92453125 7.38964844 -5.5234375 6.27734375 C-5.17071777 5.29886475 -4.81799805 4.32038574 -4.45458984 3.31225586 C-3.17186602 0.07736259 -3.17186602 0.07736259 0 0 Z M-0.5625 7.0625 C-1.23307887 8.8527061 -1.8988469 10.64471489 -2.5625 12.4375 C-2.93375 13.43523437 -3.305 14.43296875 -3.6875 15.4609375 C-4.66876277 17.92098061 -4.66876277 17.92098061 -4.5625 20.0625 C-1.5925 20.0625 1.3775 20.0625 4.4375 20.0625 C3.98553755 18.45652675 3.52567673 16.85277492 3.0625 15.25 C2.80726563 14.35667969 2.55203125 13.46335938 2.2890625 12.54296875 C1.48483339 9.85782104 1.48483339 9.85782104 -0.5625 7.0625 Z " fill="#040404" transform="translate(727.5625,122.9375)"/>
<path d="M0 0 C1.2065625 0.0309375 1.2065625 0.0309375 2.4375 0.0625 C5.97783374 7.65266889 9.21398742 15.32027548 12.25 23.125 C12.86004883 24.6709082 12.86004883 24.6709082 13.48242188 26.24804688 C13.86591797 27.22966797 14.24941406 28.21128906 14.64453125 29.22265625 C15.16237183 30.54728882 15.16237183 30.54728882 15.69067383 31.89868164 C16.4375 34.0625 16.4375 34.0625 16.4375 36.0625 C14.4575 36.0625 12.4775 36.0625 10.4375 36.0625 C9.1175 32.7625 7.7975 29.4625 6.4375 26.0625 C2.1475 25.7325 -2.1425 25.4025 -6.5625 25.0625 C-7.5525 28.6925 -8.5425 32.3225 -9.5625 36.0625 C-11.5425 36.0625 -13.5225 36.0625 -15.5625 36.0625 C-13.33323279 28.25785975 -10.69929302 20.63056684 -7.9375 13 C-7.53015625 11.86111328 -7.1228125 10.72222656 -6.703125 9.54882812 C-6.31382812 8.46923828 -5.92453125 7.38964844 -5.5234375 6.27734375 C-5.17071777 5.29886475 -4.81799805 4.32038574 -4.45458984 3.31225586 C-3.17186602 0.07736259 -3.17186602 0.07736259 0 0 Z M-0.5625 7.0625 C-1.23307887 8.8527061 -1.8988469 10.64471489 -2.5625 12.4375 C-2.93375 13.43523437 -3.305 14.43296875 -3.6875 15.4609375 C-4.66876277 17.92098061 -4.66876277 17.92098061 -4.5625 20.0625 C-1.5925 20.0625 1.3775 20.0625 4.4375 20.0625 C3.98553755 18.45652675 3.52567673 16.85277492 3.0625 15.25 C2.80726563 14.35667969 2.55203125 13.46335938 2.2890625 12.54296875 C1.48483339 9.85782104 1.48483339 9.85782104 -0.5625 7.0625 Z " fill="#040404" transform="translate(643.5625,122.9375)"/>
<path d="M0 0 C1.98 0 3.96 0 6 0 C7.85794168 4.64219349 9.70916643 9.28698692 11.55419922 13.93432617 C12.18288913 15.51513888 12.813413 17.0952235 13.44580078 18.67456055 C14.35411208 20.94391287 15.2558103 23.21579609 16.15625 25.48828125 C16.44060913 26.19463211 16.72496826 26.90098297 17.01794434 27.6287384 C18.17832702 30.57331497 19 32.80440229 19 36 C17.02 36 15.04 36 13 36 C12.49384702 34.73160474 11.99530901 33.46016898 11.5 32.1875 C11.2215625 31.47980469 10.943125 30.77210938 10.65625 30.04296875 C10 28 10 28 10 25 C3.565 25.495 3.565 25.495 -3 26 C-4.32 29.3 -5.64 32.6 -7 36 C-8.98 36 -10.96 36 -13 36 C-4.48087538 11.22373113 -4.48087538 11.22373113 0 0 Z M2 8 C1.49440092 9.43554025 0.9957251 10.8735202 0.5 12.3125 C0.2215625 13.11300781 -0.056875 13.91351563 -0.34375 14.73828125 C-1.13933107 17.08769422 -1.13933107 17.08769422 -1 20 C1.97 20 4.94 20 8 20 C6.68 16.04 5.36 12.08 4 8 C3.34 8 2.68 8 2 8 Z " fill="#040404" transform="translate(818,123)"/>
<path d="M0 0 C1.2065625 0.0309375 1.2065625 0.0309375 2.4375 0.0625 C3.9529578 3.74135937 5.46441318 7.42183644 6.97241211 11.10375977 C7.7341251 12.96128718 8.49886662 14.81757176 9.26367188 16.67382812 C11.88497276 23.07952366 14.35137051 29.46235654 16.4375 36.0625 C14.4575 36.0625 12.4775 36.0625 10.4375 36.0625 C9.76630451 34.6062455 9.10068193 33.14742133 8.4375 31.6875 C8.06625 30.87539062 7.695 30.06328125 7.3125 29.2265625 C6.4375 27.0625 6.4375 27.0625 6.4375 25.0625 C0.0025 25.5575 0.0025 25.5575 -6.5625 26.0625 C-7.8825 29.3625 -9.2025 32.6625 -10.5625 36.0625 C-12.2125 36.0625 -13.8625 36.0625 -15.5625 36.0625 C-14.94583874 31.47978362 -13.74085162 27.48393032 -12.09375 23.16796875 C-11.85338013 22.53514481 -11.61301025 21.90232086 -11.36535645 21.25032043 C-10.86031271 19.92408878 -10.3525822 18.59887741 -9.84228516 17.2746582 C-9.05897547 15.2408488 -8.28471676 13.20376369 -7.51171875 11.16601562 C-3.27924252 0.07998152 -3.27924252 0.07998152 0 0 Z M-0.5625 8.0625 C-1.2333712 9.6857687 -1.89907029 11.31117578 -2.5625 12.9375 C-2.93375 13.84242188 -3.305 14.74734375 -3.6875 15.6796875 C-4.67740226 17.95233858 -4.67740226 17.95233858 -4.5625 20.0625 C-1.5925 20.0625 1.3775 20.0625 4.4375 20.0625 C3.1175 16.1025 1.7975 12.1425 0.4375 8.0625 C0.1075 8.0625 -0.2225 8.0625 -0.5625 8.0625 Z " fill="#040404" transform="translate(550.5625,122.9375)"/>
<path d="M0 0 C2.97 0 5.94 0 9 0 C9 11.88 9 23.76 9 36 C6.03 36 3.06 36 0 36 C0 24.12 0 12.24 0 0 Z " fill="#373435" transform="translate(506,232)"/>
<path d="M0 0 C2.703125 -0.4375 2.703125 -0.4375 6 0 C7.91459579 2.36013066 9.29951318 4.38204819 10.75 7 C12.11996374 9.37338199 13.52527385 11.6876294 15 14 C15.66 14 16.32 14 17 14 C18.44332013 11.87781764 19.7686388 9.77294266 21.0625 7.5625 C24.92480469 1.07519531 24.92480469 1.07519531 26 0 C27.99958364 -0.04080783 30.00045254 -0.04254356 32 0 C29.85142534 4.0905556 27.71901938 8.05121878 24.921875 11.7421875 C18.73534127 19.95380961 17.78025407 25.9466237 18 36 C16.35 36 14.7 36 13 36 C13.05542969 35.12601563 13.11085938 34.25203125 13.16796875 33.3515625 C13.22939206 21.63199417 8.71918218 14.21719402 2.10742188 4.75488281 C1 3 1 3 0 0 Z " fill="#040404" transform="translate(670,123)"/>
<path d="M0 0 C2.97 0 5.94 0 9 0 C9 2.97 9 5.94 9 9 C6.03 9 3.06 9 0 9 C0 6.03 0 3.06 0 0 Z " fill="#373435" transform="translate(87,259)"/>
<path d="M0 0 C2.97 0 5.94 0 9 0 C9 2.64 9 5.28 9 8 C6.03 8 3.06 8 0 8 C0 5.36 0 2.72 0 0 Z " fill="#373435" transform="translate(506,219)"/>
</svg>
