<?xml version="1.0" encoding="UTF-8"?>
<svg version="1.1" xmlns="http://www.w3.org/2000/svg" width="474" height="122">
<path d="M0 0 C2.03862741 3.19384962 2.40501907 4.94905491 1.6171875 8.66015625 C-3.86573162 25.48406069 -19.41548936 38.90975629 -34.125 47.9375 C-35.935001 48.75555187 -37.74718421 49.56881075 -39.5625 50.375 C-47.31210593 54.64572086 -49.5130043 66.03948076 -52.125 73.9375 C-47.77259309 69.1340796 -47.77259309 69.1340796 -45.8125 63.0625 C-45.60173828 61.89074219 -45.60173828 61.89074219 -45.38671875 60.6953125 C-45.25716797 59.82519531 -45.25716797 59.82519531 -45.125 58.9375 C-43.805 58.9375 -42.485 58.9375 -41.125 58.9375 C-40.795 59.2675 -40.465 59.5975 -40.125 59.9375 C-39.70089844 59.42960937 -39.27679688 58.92171875 -38.83984375 58.3984375 C-26.83963023 44.31467042 -26.83963023 44.31467042 -19 43.6875 C-16.125 43.9375 -16.125 43.9375 -14.125 45.9375 C-14 48.5625 -14 48.5625 -14.125 50.9375 C-14.70467529 51.24453857 -15.28435059 51.55157715 -15.8815918 51.86791992 C-18.53029674 53.27765044 -21.17135584 54.70115827 -23.8125 56.125 C-24.72451172 56.60775391 -25.63652344 57.09050781 -26.57617188 57.58789062 C-31.48071896 60.24526341 -35.45662896 62.71308114 -39.125 66.9375 C-34.40887549 82.92244124 -27.30873879 102.54612317 -11.95703125 111.17578125 C-9.59006248 112.15991538 -7.65236179 112.33240028 -5.125 111.9375 C-4.30872788 110.28231046 -4.30872788 110.28231046 -4.125 107.9375 C-5.07492562 105.58333651 -6.07452356 103.24854818 -7.125 100.9375 C-7.125 99.9475 -7.125 98.9575 -7.125 97.9375 C-4.8125 98.0625 -4.8125 98.0625 -2.125 98.9375 C0.81999342 103.20266288 1.6197111 106.81761118 0.875 111.9375 C-1.67350377 115.63694096 -4.20555327 117.22941832 -8.4375 118.4375 C-14.3448991 119.4448876 -18.32259645 117.88840401 -23.15625 114.5234375 C-34.27543889 105.49978806 -40.0368569 92.36182106 -44.125 78.9375 C-44.25 76.0625 -44.25 76.0625 -44.125 73.9375 C-44.785 73.9375 -45.445 73.9375 -46.125 73.9375 C-46.47304688 74.95457031 -46.47304688 74.95457031 -46.828125 75.9921875 C-48.45116889 79.67825705 -50.55558082 82.7835592 -52.875 86.0625 C-53.29265625 86.68253906 -53.7103125 87.30257812 -54.140625 87.94140625 C-56.96393849 91.94396959 -59.37762913 94.23490888 -64.125 95.9375 C-67 96.125 -67 96.125 -69.125 95.9375 C-66.42395639 86.50754072 -63.25347689 77.23180999 -60.125 67.9375 C-60.63289062 68.57816406 -61.14078125 69.21882813 -61.6640625 69.87890625 C-63.80806051 72.57295619 -65.96646701 75.25508948 -68.125 77.9375 C-68.62515625 78.57816406 -69.1253125 79.21882813 -69.640625 79.87890625 C-76.30466236 88.13235483 -84.52226895 95.04306105 -95.3125 96.3125 C-98.59340694 95.87504574 -100.48040943 94.902053 -103.125 92.9375 C-104.30797571 90.57154857 -104.22636311 89.12973681 -104.1875 86.5 C-104.17847656 85.71753906 -104.16945312 84.93507813 -104.16015625 84.12890625 C-104.14275391 83.04416016 -104.14275391 83.04416016 -104.125 81.9375 C-104.125 80.9475 -104.125 79.9575 -104.125 78.9375 C-104.67027344 79.51757812 -105.21554688 80.09765625 -105.77734375 80.6953125 C-112.63468787 87.79881769 -120.33139417 95.33092805 -130.625 96.25 C-134.44188865 95.90920637 -136.16073142 95.32538303 -139.125 92.9375 C-143.91305467 86.5184778 -142.98033874 78.53423947 -142.125 70.9375 C-139.75934058 56.87191262 -134.7167444 43.53139055 -129.37744141 30.36547852 C-128.95640137 29.32319092 -128.53536133 28.28090332 -128.1015625 27.20703125 C-127.72080566 26.28510986 -127.34004883 25.36318848 -126.94775391 24.41333008 C-125.91476176 21.73967757 -125.91476176 21.73967757 -126.125 17.9375 C-134.27518364 18.65663385 -139.20454628 26.12509935 -144.125 31.9375 C-158.69793676 49.82267115 -171.79681261 69.28112522 -182.125 89.9375 C-183.775 89.9375 -185.425 89.9375 -187.125 89.9375 C-189.723777 86.11576911 -188.90966705 83.34336038 -188.125 78.9375 C-187.50632034 76.43064217 -186.8589522 73.93074139 -186.1875 71.4375 C-182.20031769 55.91957391 -178.15404377 35.20052111 -185.125 19.9375 C-187.09665326 17.02391247 -187.09665326 17.02391247 -190.125 15.9375 C-202.12217097 15.30606995 -212.65143528 25.52746592 -221.125 32.9375 C-221.82069092 33.45860352 -222.51638184 33.97970703 -223.2331543 34.51660156 C-229.75626329 39.68350207 -232.68849705 45.26532062 -235.78796387 52.90750122 C-237.11242972 56.16507144 -238.51994853 59.38676293 -239.91796875 62.61328125 C-240.1914212 63.24928757 -240.46487366 63.88529388 -240.74661255 64.54057312 C-246.9056731 78.77388363 -255.25645667 96.89374487 -269.125 104.9375 C-272.84567838 106.17772613 -276.25926839 106.45863485 -280.125 105.9375 C-282.625 104.5625 -282.625 104.5625 -284.125 101.9375 C-285.29168419 95.05892445 -283.97833699 89.65182361 -280.125 83.9375 C-277.60049768 80.47844635 -274.88890572 77.20721853 -272.125 73.9375 C-271.20303582 72.82819912 -270.28116549 71.71882022 -269.359375 70.609375 C-262.67053589 62.62513479 -255.58351718 55.20116477 -248.125 47.9375 C-246.4557633 46.27340733 -244.78902745 44.60680171 -243.125 42.9375 C-241.81982422 41.81794922 -241.81982422 41.81794922 -240.48828125 40.67578125 C-237.38473086 37.07976667 -236.47247097 33.66219794 -235.3125 29.125 C-235.09658203 28.33673828 -234.88066406 27.54847656 -234.65820312 26.73632812 C-234.13213557 24.80741376 -233.62646856 22.87295524 -233.125 20.9375 C-233.66721191 21.22415527 -234.20942383 21.51081055 -234.76806641 21.80615234 C-240.66634349 24.89858406 -246.32504896 27.34961824 -253.125 26.9375 C-252.87109375 25.01171875 -252.87109375 25.01171875 -252.125 22.9375 C-250.41015625 22.20703125 -250.41015625 22.20703125 -248.1875 21.75 C-239.50098802 19.16752347 -233.89262065 12.617714 -229.5625 4.9375 C-226.78622903 0.20461901 -226.78622903 0.20461901 -223.765625 -1.015625 C-220.49283441 -1.4116952 -218.1035668 -1.5517834 -215.125 -0.0625 C-215.85594706 4.99235927 -217.80880904 9.53653179 -219.6875 14.25 C-220.01685547 15.08595703 -220.34621094 15.92191406 -220.68554688 16.78320312 C-221.49498877 18.83613546 -222.30823457 20.88747286 -223.125 22.9375 C-218.61239194 20.75269316 -214.51471862 17.98239805 -210.34570312 15.21484375 C-204.564137 11.43530862 -200.25138842 9.64800941 -193.1875 9.625 C-191.41052734 9.59986328 -191.41052734 9.59986328 -189.59765625 9.57421875 C-184.24194902 10.13448958 -180.33088774 12.12002426 -176.875 16.25 C-176.39546875 16.80300781 -175.9159375 17.35601563 -175.421875 17.92578125 C-172.2080115 22.9111418 -171.70822391 28.13350866 -171.6875 33.9375 C-171.68363281 34.7020752 -171.67976563 35.46665039 -171.67578125 36.25439453 C-171.8568068 45.68092305 -174.25023426 54.68289841 -176.66601562 63.74951172 C-177.26187063 66.21736329 -177.26187063 66.21736329 -177.125 69.9375 C-176.53074219 68.8959375 -175.93648438 67.854375 -175.32421875 66.78125 C-146.38429913 16.533982 -146.38429913 16.533982 -127.125 6.9375 C-123.1724404 6.40155972 -121.1388672 6.29716282 -117.75 8.4375 C-114.82909167 12.93120513 -114.69950597 16.64173742 -115.6484375 21.76171875 C-117.68655543 29.5121764 -120.6398972 36.82707275 -123.625 44.25 C-128.91359843 57.474185 -134.04486814 71.42686874 -132.125 85.9375 C-131.135 87.4225 -131.135 87.4225 -130.125 88.9375 C-121.7340102 88.9375 -115.70536558 83.42264309 -109.921875 77.79296875 C-107.89002392 75.57313145 -105.99225693 73.29734618 -104.125 70.9375 C-103.42246094 70.05835937 -102.71992188 69.17921875 -101.99609375 68.2734375 C-98.03428308 63.0931694 -95.05769619 58.20170959 -92.9140625 52.03125 C-92.125 49.9375 -92.125 49.9375 -90.125 46.9375 C-87.815 47.2675 -85.505 47.5975 -83.125 47.9375 C-81.8206204 52.30097214 -82.45395397 54.50891139 -84.3984375 58.5703125 C-85.1409375 60.15005859 -85.1409375 60.15005859 -85.8984375 61.76171875 C-86.42695313 62.85097656 -86.95546875 63.94023438 -87.5 65.0625 C-88.52961239 67.23131224 -89.55830157 69.40056307 -90.5859375 71.5703125 C-91.04790527 72.52824707 -91.50987305 73.48618164 -91.98583984 74.47314453 C-93.63764621 78.04651219 -94.24399837 80.72661269 -94.1875 84.625 C-94.17847656 85.43324219 -94.16945312 86.24148437 -94.16015625 87.07421875 C-94.14855469 87.68910156 -94.13695312 88.30398437 -94.125 88.9375 C-91.01676134 90.36191896 -91.01676134 90.36191896 -87.8125 88.328125 C-84.25218435 86.14780565 -81.15177744 83.55236139 -78.125 80.6875 C-77.60373535 80.19934814 -77.0824707 79.71119629 -76.54541016 79.20825195 C-72.44126519 75.3218962 -68.61148975 71.38447608 -65.125 66.9375 C-64.70911621 66.41220703 -64.29323242 65.88691406 -63.86474609 65.34570312 C-62.44944549 63.53851152 -61.06539956 61.71083292 -59.6875 59.875 C-59.01243408 59.00814575 -59.01243408 59.00814575 -58.32373047 58.1237793 C-55.27056907 53.94361599 -54.64882025 51.05806307 -55.125 45.9375 C-52.65 45.4425 -52.65 45.4425 -50.125 44.9375 C-49.795 43.7825 -49.465 42.6275 -49.125 41.4375 C-43.62848275 25.12774088 -34.14661392 7.87304649 -18.875 -0.9375 C-12.27263763 -3.63846642 -6.12539483 -4.04276059 0 0 Z M-19.73828125 11.5 C-29.0925725 21.05331873 -35.22554926 32.03884935 -41.125 43.9375 C-40.465 44.2675 -39.805 44.5975 -39.125 44.9375 C-24.35317016 35.42622641 -11.01567991 23.5561986 -4.125 6.9375 C-4.42878052 4.24756947 -4.42878052 4.24756947 -5.125 1.9375 C-10.14591621 1.9375 -16.31759791 8.34065919 -19.73828125 11.5 Z M-248.37792969 57.00048828 C-248.95446289 57.57782715 -249.53099609 58.15516602 -250.125 58.75 C-250.71442383 59.34022949 -251.30384766 59.93045898 -251.91113281 60.53857422 C-257.02536375 65.72387485 -261.61103751 71.22477458 -266.125 76.9375 C-268.47269418 79.73898171 -270.82190633 82.53903241 -273.1796875 85.33203125 C-275.8744442 88.94127366 -278.2443866 92.14670102 -277.9375 96.75 C-277.34309907 99.11292751 -277.34309907 99.11292751 -275.125 99.9375 C-261.88956508 94.34920525 -256.10470477 81.04090312 -249.6875 69 C-249.26251221 68.20779053 -248.83752441 67.41558105 -248.3996582 66.59936523 C-246.05228631 62.10335833 -244.32641098 57.86788058 -243.125 52.9375 C-245.371231 52.9375 -246.85997291 55.50301982 -248.37792969 57.00048828 Z M-59.125 64.9375 C-58.125 66.9375 -58.125 66.9375 -58.125 66.9375 Z M-180.125 72.9375 C-179.125 74.9375 -179.125 74.9375 -179.125 74.9375 Z " fill="#444543" transform="translate(284.125,3.0625)"/>
<path d="M0 0 C2.256533 3.52019147 2.33071953 6.45106354 1.5625 10.4375 C-6.10488126 32.63052313 -30.36702089 57.25803627 -49.3125 70.4375 C-52.298783 73.24811929 -52.77725975 75.41003449 -53.4375 79.4375 C-53.46255413 85.51953047 -53.46255413 85.51953047 -50.4375 90.4375 C-41.53018625 89.63983011 -32.60362191 81.30420137 -26.99438477 74.75170898 C-23.11380201 69.87449037 -20.84267924 65.08427763 -18.75 59.25 C-12.87610903 43.79911289 -5.30177945 28.74738605 4.5625 15.4375 C5.28050781 14.46296875 5.99851562 13.4884375 6.73828125 12.484375 C12.04388821 5.63015392 17.78739944 -0.96159007 26.6875 -2.625 C31.27821761 -2.55095617 33.57524654 -1.75955803 37.5625 0.4375 C39.39833062 4.10916123 39.29442506 7.51023044 38.5625 11.4375 C31.92193435 26.70338137 19.97154462 39.55846384 8.5625 51.4375 C8.0763623 51.94555176 7.59022461 52.45360352 7.08935547 52.97705078 C5.58946869 54.53554596 4.07969471 56.08335413 2.5625 57.625 C1.82132935 58.37825562 1.82132935 58.37825562 1.06518555 59.14672852 C-2.26008499 62.45244822 -5.77479082 65.22102799 -9.5625 68 C-13.46862916 71.10010251 -15.21032998 73.21140031 -16.25 78.125 C-16.61850807 82.29557545 -16.58605981 85.72635123 -14.4375 89.4375 C-12.12500452 90.39201941 -10.90048097 90.58311498 -8.5 89.828125 C0.91110705 84.62349762 8.86346539 77.16402742 15.03515625 68.3984375 C23.10003427 58.04404167 36.34260756 49.32003377 49 45.75 C55.48948525 44.95859936 59.93536395 44.8200554 65.5625 48.4375 C67.5625 51.4375 67.5625 51.4375 67.5625 54.4375 C67.01722656 54.19773438 66.47195313 53.95796875 65.91015625 53.7109375 C58.48237588 50.79061359 54.02462075 51.70223082 46.75 54.53125 C35.36637579 59.63016501 25.42473108 68.31548055 19.5625 79.4375 C18.4047494 82.91075181 18.49383348 85.79817448 18.5625 89.4375 C25.72691203 88.594628 30.9573464 83.47119583 36.25 78.9375 C36.85577881 78.41921631 37.46155762 77.90093262 38.08569336 77.36694336 C43.16472174 72.94004702 47.70428383 68.17523326 52.16015625 63.12890625 C57.04835287 57.65253638 57.04835287 57.65253638 59.5625 55.4375 C63.375 55.625 63.375 55.625 66.5625 56.4375 C67.59059378 59.67629255 67.68400159 61.12939187 66.41796875 64.33984375 C65.86753906 65.34144531 65.31710937 66.34304687 64.75 67.375 C61.60009132 73.17352548 59.25649559 78.11533688 59.4375 84.8125 C59.45554687 85.68648438 59.47359375 86.56046875 59.4921875 87.4609375 C59.51539063 88.11320312 59.53859375 88.76546875 59.5625 89.4375 C62.47485859 90.78281498 62.47485859 90.78281498 64.83984375 89.42578125 C73.97910696 83.66844804 82.29646853 76.30732157 88.5625 67.4375 C89.5525 67.7675 90.5425 68.0975 91.5625 68.4375 C90.03226305 73.87834251 86.33981708 77.42320296 82.5625 81.4375 C81.84320313 82.20964844 81.12390625 82.98179688 80.3828125 83.77734375 C73.63299556 90.79575202 67.89222381 96.04489538 57.83203125 96.5703125 C54.62188172 96.38245521 52.90659329 95.63508746 50.5625 93.4375 C48.40204741 89.31500372 48.47495416 86.20420384 48.9375 81.625 C49.04835938 80.46355469 49.15921875 79.30210938 49.2734375 78.10546875 C49.36882812 77.22503906 49.46421875 76.34460938 49.5625 75.4375 C48.66789063 76.39011719 47.77328125 77.34273438 46.8515625 78.32421875 C32.42190212 93.40858968 32.42190212 93.40858968 21.8125 95 C16.97421765 94.16260498 13.96431048 92.03266365 10.75 88.375 C9.5625 86.4375 9.5625 86.4375 8.5625 83.4375 C7.510625 84.46810547 7.510625 84.46810547 6.4375 85.51953125 C-4.76636614 96.16015956 -4.76636614 96.16015956 -12.75390625 96.55078125 C-16.76740197 96.35903269 -19.01590194 95.72454549 -22.375 93.4375 C-25.02294601 89.58594217 -25.76999599 86.01040061 -26.4375 81.4375 C-27.02144531 82.07365234 -27.02144531 82.07365234 -27.6171875 82.72265625 C-33.8434311 89.2501697 -40.84279429 96.30472281 -50.33203125 96.640625 C-54.94445517 96.19564162 -58.26877769 94.83996678 -61.3125 91.1875 C-62.64081149 87.94051635 -63.09620604 84.91869843 -63.4375 81.4375 C-63.89898437 81.87320313 -64.36046875 82.30890625 -64.8359375 82.7578125 C-74.07632701 91.19468988 -83.4756579 96.51041289 -96.0625 97.8125 C-102.02912257 97.14954194 -106.78458467 95.81492945 -111.4375 91.9375 C-114.71151887 87.84497641 -114.84412648 84.56099371 -114.4375 79.4375 C-111.13780356 66.14953325 -100.37023831 57.72599221 -89.4375 50.4375 C-83.19655379 46.76396743 -77.73495174 44.79737265 -70.4375 45.4375 C-67.5 46.875 -67.5 46.875 -65.4375 49.4375 C-64.63057467 53.55666168 -64.94762387 57.15157515 -66.4375 61.0625 C-73.06683109 68.93483067 -80.73097186 73.20199062 -90.4375 76.4375 C-91.83189664 76.50415376 -93.22919875 76.52288199 -94.625 76.5 C-95.883125 76.479375 -97.14125 76.45875 -98.4375 76.4375 C-98.4375 75.4475 -98.4375 74.4575 -98.4375 73.4375 C-97.79425781 73.25316406 -97.15101563 73.06882812 -96.48828125 72.87890625 C-87.80207408 70.09089396 -78.02961725 65.41407911 -72.5625 57.83984375 C-71.22545285 55.42680963 -71.22545285 55.42680963 -71.4375 52.4375 C-77.63873851 52.75551223 -81.6222001 55.85343265 -86.4375 59.4375 C-87.06011719 59.89253906 -87.68273437 60.34757812 -88.32421875 60.81640625 C-95.23591157 66.26810104 -100.74709029 74.04975208 -103.4375 82.4375 C-103.85581404 86.14750718 -103.85581404 86.14750718 -103.4375 89.4375 C-101.01294526 91.86205474 -100.17242556 91.86963418 -96.8125 92.0625 C-84.18049544 91.81351174 -72.86127702 83.12247941 -64.4375 74.4375 C-63.76460938 73.87546875 -63.09171875 73.3134375 -62.3984375 72.734375 C-59.51723445 69.3595794 -58.33012423 65.56957867 -56.8125 61.4375 C-48.73802313 40.44501335 -36.89732483 11.11682506 -16.4375 -0.5625 C-10.62957643 -2.90604811 -5.45429438 -3.49634255 0 0 Z M-17.4375 10.4375 C-27.86151065 21.33458781 -34.80872609 34.23560094 -41.875 47.4375 C-42.51308594 48.62098022 -42.51308594 48.62098022 -43.1640625 49.82836914 C-45.51875508 54.30866709 -47.23997279 58.51651389 -48.4375 63.4375 C-30.41791861 51.3089356 -16.84199396 31.17511269 -6.4375 12.4375 C-6.02113281 11.69628906 -5.60476563 10.95507812 -5.17578125 10.19140625 C-4.13019207 7.70744042 -4.73295483 5.97386262 -5.4375 3.4375 C-10.58420975 3.4375 -13.75404659 7.08994111 -17.4375 10.4375 Z M20.5625 10.4375 C19.99402344 10.93121094 19.42554688 11.42492187 18.83984375 11.93359375 C6.27060089 23.37368477 -0.95179973 40.54576781 -8.4375 55.4375 C-8.83904297 56.13657471 -9.24058594 56.83564941 -9.65429688 57.5559082 C-10.74745183 59.60182737 -10.74745183 59.60182737 -9.4375 62.4375 C6.95927546 48.3083637 24.02020807 29.67901784 32.5625 9.4375 C32.82509772 6.1785626 32.82509772 6.1785626 32.5625 3.4375 C26.74454921 3.4375 24.62644988 6.57329057 20.5625 10.4375 Z " fill="#444543" transform="translate(382.4375,2.5625)"/>
<path d="M0 0 C0.99 0.33 1.98 0.66 3 1 C2.57476184 2.60746056 2.13429874 4.21089836 1.6875 5.8125 C1.44386719 6.70582031 1.20023438 7.59914063 0.94921875 8.51953125 C-0.0412964 11.10791445 -0.78304746 12.36138291 -3 14 C-6.5625 14.3125 -6.5625 14.3125 -10 14 C-10.66 13.34 -11.32 12.68 -12 12 C-11.9609375 10.14453125 -11.9609375 10.14453125 -11 8 C-8.6015625 5.82421875 -8.6015625 5.82421875 -5.625 3.6875 C-4.15933594 2.61048828 -4.15933594 2.61048828 -2.6640625 1.51171875 C-1.78492188 1.01285156 -0.90578125 0.51398437 0 0 Z " fill="#444543" transform="translate(207,29)"/>
</svg>
