<?xml version="1.0" encoding="UTF-8"?>
<svg version="1.1" xmlns="http://www.w3.org/2000/svg" width="1024" height="252">
<path d="M0 0 C1.79240663 0.11389875 3.58394835 0.24147687 5.375 0.375 C6.87160156 0.47941406 6.87160156 0.47941406 8.3984375 0.5859375 C11 1 11 1 13 3 C13.66 3 14.32 3 15 3 C15.495 6.96 15.495 6.96 16 11 C16.99 11 17.98 11 19 11 C18.67 13.64 18.34 16.28 18 19 C18.66 19 19.32 19 20 19 C20.495 19.99 20.495 19.99 21 21 C21.81404297 20.13375 21.81404297 20.13375 22.64453125 19.25 C23.35996094 18.5075 24.07539062 17.765 24.8125 17 C25.52019531 16.2575 26.22789063 15.515 26.95703125 14.75 C29 13 29 13 32 13 C32 12.34 32 11.68 32 11 C36.24117801 6.4851976 40.18426585 6.39963453 46 6 C47.67170873 5.69295146 49.3420691 5.37437149 51 5 C51 6.32 51 7.64 51 9 C49.02 9.99 47.04 10.98 45 12 C45.99 12.33 46.98 12.66 48 13 C47 16 47 16 45 18 C45.99 17.505 45.99 17.505 47 17 C49.28842353 16.7935257 51.58116393 16.63352892 53.875 16.5 C57.73741159 16.27422229 61.2628741 15.95399205 65 15 C66.58211573 14.93451508 68.16670081 14.91421619 69.75 14.9375 C70.54921875 14.94652344 71.3484375 14.95554687 72.171875 14.96484375 C72.77515625 14.97644531 73.3784375 14.98804688 74 15 C74 15.66 74 16.32 74 17 C73.01 17.33 72.02 17.66 71 18 C71 19.32 71 20.64 71 22 C70.01 22 69.02 22 68 22 C68 22.99 68 23.98 68 25 C66.68 25 65.36 25 64 25 C63.67 25.99 63.34 26.98 63 28 C61.68 28 60.36 28 59 28 C59 28.66 59 29.32 59 30 C57.02 30.66 55.04 31.32 53 32 C55.31 32.33 57.62 32.66 60 33 C60 33.66 60 34.32 60 35 C57.525 35.495 57.525 35.495 55 36 C55 36.66 55 37.32 55 38 C52.03 38 49.06 38 46 38 C47.00097404 39.22880847 47.00097404 39.22880847 49.00610352 39.06591797 C50.30439087 39.02942139 50.30439087 39.02942139 51.62890625 38.9921875 C52.58216797 38.97542969 53.53542969 38.95867188 54.51757812 38.94140625 C56.52038323 38.89772737 58.52302964 38.84587385 60.52539062 38.78515625 C68.14223302 38.67291879 73.54338579 39.69559053 80 44 C82 46 82 46 82 49 C82.86625 48.71125 83.7325 48.4225 84.625 48.125 C88 48 88 48 89.734375 49.19921875 C91.2991866 50.73795016 92.72436044 52.2131999 94 54 C94 54.66 94 55.32 94 56 C94.66 56 95.32 56 96 56 C97.0076952 57.7664657 98.00591714 59.53833823 99 61.3125 C99.556875 62.29863281 100.11375 63.28476562 100.6875 64.30078125 C102 67 102 67 102 70 C102.33 69.67 102.66 69.34 103 69 C102.67 67.906875 102.34 66.81375 102 65.6875 C101 62 101 62 101 59 C100.814375 58.21625 100.62875 57.4325 100.4375 56.625 C99.9565232 53.73913919 100.34734059 51.82819077 101 49 C101 47.68 101 46.36 101 45 C104 46 107 47 110 48 C110.6875 50.0625 110.6875 50.0625 111 52 C111.99 52 112.98 52 114 52 C116 55 116 55 116 59 C116.66 59 117.32 59 118 59 C119.78079291 62.264787 120.07082169 63.68130239 119.25 67.375 C118.8375 68.57125 118.425 69.7675 118 71 C117.61691168 72.31016205 117.24157225 73.62262128 116.875 74.9375 C116.58625 75.948125 116.2975 76.95875 116 78 C116.763125 77.236875 117.52625 76.47375 118.3125 75.6875 C119.199375 74.800625 120.08625 73.91375 121 73 C121.45375 72.443125 121.9075 71.88625 122.375 71.3125 C126.01554462 68.37206011 130.47493921 68 135 68 C135 67.34 135 66.68 135 66 C143.03571429 63.72321429 143.03571429 63.72321429 147 65 C147 65.66 147 66.32 147 67 C146.34 67 145.68 67 145 67 C145 68.32 145 69.64 145 71 C144.34 71 143.68 71 143 71 C143 71.66 143 72.32 143 73 C143.53576031 72.83748025 144.07152061 72.6749605 144.62351608 72.50751591 C147.47907569 71.89768981 150.10209286 71.87723547 153.02374268 71.87974548 C154.25770782 71.87837082 155.49167297 71.87699615 156.76303101 71.87557983 C158.12750268 71.87911873 159.49197412 71.88275353 160.85644531 71.88647461 C162.29544065 71.88675673 163.73443614 71.88659826 165.1734314 71.8860321 C169.07804129 71.8857451 172.98262049 71.89162629 176.88722324 71.89860606 C180.96849474 71.9048556 185.04976694 71.90544467 189.13104248 71.90663147 C196.85868012 71.90974006 204.58630363 71.91794709 212.31393504 71.92798096 C221.11192376 71.93915675 229.90991315 71.94465625 238.7079072 71.94967639 C256.80527971 71.96013009 274.9026382 71.97792174 293 72 C293 76.95 293 81.9 293 87 C248.45 87.33 203.9 87.66 158 88 C158.68079962 91.09854192 158.68079962 91.09854192 161.03125 92.28125 C161.8459375 92.6834375 162.660625 93.085625 163.5 93.5 C165.96875 94.71875 165.96875 94.71875 168 96 C168.33 96.99 168.66 97.98 169 99 C166.36 98.67 163.72 98.34 161 98 C161.33 99.65 161.66 101.3 162 103 C160.22739369 102.54857225 158.4569632 102.08859477 156.6875 101.625 C155.70136719 101.36976562 154.71523437 101.11453125 153.69921875 100.8515625 C151 100 151 100 148 98 C148.33 99.32 148.66 100.64 149 102 C149.66 102 150.32 102 151 102 C152.36363208 103.97946592 153.69418644 105.9819245 155 108 C155.52335938 108.4640625 156.04671875 108.928125 156.5859375 109.40625 C158.43688615 111.49240206 158.48813586 112.93627488 158.6875 115.6875 C158.75324219 116.49574219 158.81898438 117.30398437 158.88671875 118.13671875 C158.94279297 119.05904297 158.94279297 119.05904297 159 120 C158.34 120 157.68 120 157 120 C157 121.65 157 123.3 157 125 C156.67 125 156.34 125 156 125 C155.8453125 126.175625 155.8453125 126.175625 155.6875 127.375 C155 130 155 130 152 132 C154.77575831 132.92525277 156.43940543 133.12843797 159.30418396 133.13803101 C160.62220757 133.14621101 160.62220757 133.14621101 161.96685791 133.15455627 C162.92839783 133.1555986 163.88993774 133.15664093 164.88061523 133.15771484 C165.89565628 133.16279556 166.91069733 133.16787628 167.95649719 133.17311096 C170.16471426 133.18382218 172.37294224 133.1924394 174.58117485 133.19923019 C178.08388288 133.21102264 181.58646781 133.23047974 185.08912659 133.25234985 C195.04985408 133.31393152 205.01057092 133.36788012 214.97143555 133.40136719 C221.06340517 133.42239901 227.15515341 133.45777758 233.24699593 133.50212479 C235.56202639 133.51622544 237.87709606 133.52499372 240.19216728 133.52817917 C271.1083779 133.57519442 271.1083779 133.57519442 282 142 C290.68874578 150.85811704 293.1793994 160.64127279 293.25 172.6875 C293.2809375 173.97817383 293.2809375 173.97817383 293.3125 175.29492188 C293.37559765 185.76124432 289.9010047 194.9193117 282.875 202.6875 C271.85744743 213.05422668 253.90269613 212.3101514 239.72094727 212.22705078 C238.3689983 212.22648452 237.01704871 212.2268074 235.6651001 212.22793579 C232.04827909 212.22850193 228.4315949 212.2168696 224.81480527 212.20278788 C221.01521098 212.19015516 217.21561242 212.18910026 213.41600037 212.18673706 C206.24473678 212.1805587 199.0735353 212.16419806 191.90229887 212.14403808 C183.72799198 212.12156458 175.5536819 212.11065706 167.37935174 212.10064721 C150.5861973 212.07982792 133.79310908 212.0443139 117 212 C117 207.05 117 202.1 117 197 C119.44938744 196.98786972 119.44938744 196.98786972 121.94825745 196.97549438 C137.38089207 196.89781358 152.81343658 196.81013335 168.24595737 196.71247292 C176.1788449 196.66252451 184.11172301 196.61608088 192.04467773 196.578125 C198.9656026 196.54500211 205.88645028 196.50506185 212.80728954 196.45720994 C216.46585283 196.43214478 220.12436625 196.41030674 223.78299141 196.39665604 C227.88481712 196.38122315 231.98640253 196.35055766 236.08813477 196.31884766 C237.27785385 196.31668747 238.46757294 196.31452728 239.69334412 196.31230164 C257.57269875 196.54281013 257.57269875 196.54281013 273 189 C278.14702081 182.19264989 277.49545251 174.19331647 277 166 C276.18809603 161.56205035 274.54684145 158.1845577 271.1875 155.125 C259.8291916 147.5527944 242.93652871 149.82670158 229.81433105 149.73963928 C226.62779933 149.71835116 223.44135867 149.69135996 220.25488281 149.66296387 C212.35366472 149.59366168 204.45238194 149.53364481 196.55108643 149.47393799 C189.84396164 149.4229617 183.13688998 149.3681709 176.42984009 149.30812073 C173.29398181 149.28162166 170.15811816 149.26077458 167.0222168 149.2401123 C165.10335037 149.22351124 163.18448627 149.20663957 161.265625 149.18945312 C160.39700333 149.18526871 159.52838165 149.18108429 158.63343811 149.17677307 C154.62837267 149.13522316 150.90858926 148.99329235 147 148 C146.855625 148.598125 146.71125 149.19625 146.5625 149.8125 C146.1127561 151.56150404 145.57107659 153.28677023 145 155 C144.34 155 143.68 155 143 155 C142.67 153.68 142.34 152.36 142 151 C140.35 151 138.7 151 137 151 C136.67 149.35 136.34 147.7 136 146 C135.34 146 134.68 146 134 146 C129.97950843 142.3145494 126.50074982 138.17443363 123 134 C122.54625 134.495 122.0925 134.99 121.625 135.5 C120 137 120 137 118 137 C118 138.32 118 139.64 118 141 C117.34 141 116.68 141 116 141 C116.0825 141.7425 116.165 142.485 116.25 143.25 C116 146 116 146 114.3125 148.125 C110.77573985 150.99264337 107.5239267 153.1622358 103 154 C103 152.35 103 150.7 103 149 C102.34 149 101.68 149 101 149 C100.67 147.68 100.34 146.36 100 145 C99.01 145.33 98.02 145.66 97 146 C97.66666667 143.33333333 98.33333333 140.66666667 99 138 C98.34 138 97.68 138 97 138 C97.46921997 135.58686871 97.9501636 133.19380821 98.5625 130.8125 C99.07821351 128.98673164 99.07821351 128.98673164 99 127 C98.34 126.67 97.68 126.34 97 126 C97 122.33333333 97 118.66666667 97 115 C96.01 116.98 95.02 118.96 94 121 C93.34 121 92.68 121 92 121 C91.72285156 121.7321875 91.44570312 122.464375 91.16015625 123.21875 C90.08149621 125.8046286 88.85017163 128.0851767 87.4375 130.5 C79.32452295 145.39659882 73.77268351 161.15971582 68.5625 177.25 C68.29943054 178.06031677 68.03636108 178.87063354 67.76531982 179.70550537 C67.00517015 182.05690408 66.2526899 184.41058447 65.50390625 186.765625 C65.16851082 187.81005264 65.16851082 187.81005264 64.82633972 188.87557983 C63.26036573 193.86152403 62.06457484 198.88457448 61 204 C61.433125 203.505 61.86625 203.01 62.3125 202.5 C64 201 64 201 67 201 C65.7508258 204.45925163 64.32472205 207.14693203 62 210 C62.66 210 63.32 210 64 210 C62.95836992 213.03808774 61.9135405 215.10680291 59.875 217.625 C57.69017786 219.88811978 57.69017786 219.88811978 58 223 C59.98 222.67 61.96 222.34 64 222 C64 222.66 64 223.32 64 224 C63.34 224.66 62.68 225.32 62 226 C63.03125 225.505 64.0625 225.01 65.125 224.5 C68.52451578 223.02526098 71.27021549 222.72708894 75 223 C72.84375786 225.23610296 70.71292752 227.22182874 68.25 229.125 C67.5075 229.74375 66.765 230.3625 66 231 C66 231.66 66 232.32 66 233 C65.34 233.33 64.68 233.66 64 234 C66.38068925 236.38068925 66.84788258 236.25075017 70.08279049 236.25480902 C71.3753076 236.26370103 71.3753076 236.26370103 72.69393617 236.27277267 C73.64808072 236.26912299 74.60222526 236.26547331 75.58528328 236.26171303 C77.10321601 236.26770712 77.10321601 236.26770712 78.65181404 236.27382231 C82.08222467 236.28489253 85.51247656 236.28158187 88.94290161 236.2784729 C91.41126022 236.28347033 93.87961718 236.28934448 96.3479718 236.29602563 C101.73496189 236.30858145 107.1219065 236.31488554 112.50890732 236.31578636 C120.51923999 236.31715925 128.52952577 236.3299237 136.53984279 236.3450741 C150.01276427 236.37023104 163.48568181 236.38607232 176.95862198 236.39665604 C190.30395482 236.40716977 203.64927266 236.4217923 216.99459457 236.44193649 C218.23794142 236.44380979 218.23794142 236.44380979 219.50640638 236.44572094 C223.71573541 236.45208444 227.92506432 236.45852169 232.1343932 236.46498732 C261.97093531 236.51068426 291.80748228 236.54711721 321.64404297 236.578125 C350.63493564 236.60827507 379.62581841 236.64260713 408.61669922 236.68261719 C409.5098816 236.68384819 410.40306398 236.68507919 411.3233125 236.6863475 C420.29278652 236.69871406 429.26226043 236.71116581 438.23173424 236.72367998 C456.50457631 236.74917225 474.77741914 236.77409577 493.05026245 236.79867554 C493.89047025 236.79980645 494.73067804 236.80093736 495.59634668 236.80210253 C551.73088637 236.8775937 607.86544224 236.93967264 664 237 C663.67 227.1 663.34 217.2 663 207 C659.04 208.32 655.08 209.64 651 211 C647.42553711 211.51757812 647.42553711 211.51757812 644.52734375 211.53125 C643.44259766 211.53640625 642.35785156 211.5415625 641.24023438 211.546875 C640.15033203 211.53140625 639.06042969 211.5159375 637.9375 211.5 C636.2968457 211.52320313 636.2968457 211.52320313 634.62304688 211.546875 C624.04974474 211.49655589 615.12357919 208.8345663 606.94140625 201.984375 C598.78483968 193.6472808 596.86458874 181.60138713 596.88647461 170.35205078 C596.88655014 169.05115509 596.88662567 167.7502594 596.88670349 166.40994263 C596.89180899 165.00506552 596.89702496 163.60018881 596.90234375 162.1953125 C596.90421077 160.74657236 596.90563333 159.29783158 596.90663147 157.84909058 C596.91043427 154.05153637 596.92024526 150.25402092 596.93133545 146.45648193 C596.94159785 142.57515995 596.94613941 138.69383166 596.95117188 134.8125 C596.9618697 127.20831369 596.9794482 119.60416723 597 112 C602.28 112 607.56 112 613 112 C613.0093457 114.0430835 613.01869141 116.08616699 613.02832031 118.19116211 C613.06220462 124.96866848 613.11781656 131.74587403 613.18390274 138.523139 C613.22328224 142.62912956 613.25551703 146.73490872 613.27099609 150.84106445 C613.28622603 154.80950562 613.32078211 158.77736524 613.36830902 162.74554634 C613.38305794 164.25361618 613.39103726 165.76176909 613.39188385 167.26991081 C613.40262935 176.82057246 614.03925753 184.4256217 619.6875 192.375 C627.27185706 197.7045482 636.0199166 197.78220183 645 197 C648.4550421 196.26155188 651.7000827 195.25124565 655 194 C655.99 193.67 656.98 193.34 658 193 C659.13346586 190.93080674 659.13346586 190.93080674 660 188 C660.36427849 187.03738754 660.36427849 187.03738754 660.73591614 186.05532837 C663.43092907 178.31097646 663.47630018 170.68408734 663.51171875 162.5859375 C663.52859822 161.1204786 663.54675276 159.65503389 663.56611633 158.18960571 C663.61326854 154.36586952 663.64330122 150.54219086 663.66955566 146.71826172 C663.69953856 142.80294433 663.7460071 138.88782463 663.79101562 134.97265625 C663.8766522 127.31518623 663.94264456 119.65774365 664 112 C669.28 112 674.56 112 680 112 C680 158.2 680 204.4 680 252 C451.64 252 223.28 252 -12 252 C-12 246.39 -12 240.78 -12 235 C-8.7 234.67 -5.4 234.34 -2 234 C-2.99 232.35 -3.98 230.7 -5 229 C-0.25 228.875 -0.25 228.875 2 230 C1.68546875 229.15824219 1.3709375 228.31648437 1.046875 227.44921875 C-6.13876984 206.60652 -7.66600595 184.74372939 -7.46655273 162.83789062 C-7.43744131 159.36800449 -7.44605134 155.89964584 -7.45898438 152.4296875 C-7.44365122 137.09578713 -6.16391088 122.1725203 -4 107 C-3.77932922 105.4048594 -3.55914986 103.80965069 -3.33959961 102.21435547 C-2.9105268 99.13989678 -2.46665432 96.06893841 -2 93 C-2.33 93.66 -2.66 94.32 -3 95 C-3.66 95 -4.32 95 -5 95 C-5.495 96.98 -5.495 96.98 -6 99 C-7.65 99.33 -9.3 99.66 -11 100 C-11.33 101.65 -11.66 103.3 -12 105 C-13.32 105 -14.64 105 -16 105 C-16.18175781 105.54269531 -16.36351562 106.08539063 -16.55078125 106.64453125 C-16.80214844 107.35996094 -17.05351563 108.07539062 -17.3125 108.8125 C-17.55613281 109.52019531 -17.79976562 110.22789063 -18.05078125 110.95703125 C-19.06724258 113.14472373 -20.20820594 114.40896718 -22 116 C-22.33 115.01 -22.66 114.02 -23 113 C-23.99 113 -24.98 113 -26 113 C-26.268125 114.11375 -26.53625 115.2275 -26.8125 116.375 C-28 120 -28 120 -31 122 C-31.33 121.01 -31.66 120.02 -32 119 C-33.32 121.64 -34.64 124.28 -36 127 C-36.66 127 -37.32 127 -38 127 C-38 124.69 -38 122.38 -38 120 C-38.99 120.33 -39.98 120.66 -41 121 C-40.67 117.7 -40.34 114.4 -40 111 C-41.65 111.99 -43.3 112.98 -45 114 C-44.36118807 110.82029567 -43.22338909 108.46221976 -41.5625 105.6875 C-39.34895347 101.82338988 -38.0123453 98.32547536 -37 94 C-36.34 94 -35.68 94 -35 94 C-34.9175 93.360625 -34.835 92.72125 -34.75 92.0625 C-33.70479628 87.79458483 -31.85908174 83.96892333 -30 80 C-29.34 80 -28.68 80 -28 80 C-28 79.29875 -28 78.5975 -28 77.875 C-26.25936451 72.87067295 -21.49387297 70.55801707 -17.13671875 67.8359375 C-15.71920425 66.94956805 -14.35352682 65.98130694 -13 65 C-13 64.01 -13 63.02 -13 62 C-13.81984375 62 -14.6396875 62 -15.484375 62 C-19.98958333 62 -24.49479167 62 -29 62 C-30.34164079 62.2981424 -31.67851173 62.62243192 -33 63 C-33.33 62.01 -33.66 61.02 -34 60 C-34.928125 60.185625 -35.85625 60.37125 -36.8125 60.5625 C-40 61 -40 61 -43 60 C-43.33 59.34 -43.66 58.68 -44 58 C-46.31 58.99 -48.62 59.98 -51 61 C-51.33 60.34 -51.66 59.68 -52 59 C-51.67 58.34 -51.34 57.68 -51 57 C-52.98 57.66 -54.96 58.32 -57 59 C-57.33 58.01 -57.66 57.02 -58 56 C-58.99 56.495 -58.99 56.495 -60 57 C-61.99960012 57.039992 -64.00047242 57.04346799 -66 57 C-66 56.34 -66 55.68 -66 55 C-66.99 55 -67.98 55 -69 55 C-69.66 55 -70.32 55 -71 55 C-71 54.01 -71 53.02 -71 52 C-74.96 51.505 -74.96 51.505 -79 51 C-79 50.34 -79 49.68 -79 49 C-73.91059256 46.94637945 -69.45479185 45.56820748 -64 45 C-63.93296875 44.43667969 -63.8659375 43.87335937 -63.796875 43.29296875 C-60.67156637 34.30004638 -44.59867264 24.7382916 -36.4921875 20.7734375 C-28.11082482 17.64867859 -20.12507432 18.83546531 -11.75 21.3125 C-10.97398438 21.52583984 -10.19796875 21.73917969 -9.3984375 21.95898438 C-5.19512717 23.16044253 -1.65060989 24.51028405 2 27 C1.01 24.03 1.01 24.03 0 21 C0.99 20.505 0.99 20.505 2 20 C1.01 17.525 1.01 17.525 0 15 C0.33 14.67 0.66 14.34 1 14 C0.01 13.505 0.01 13.505 -1 13 C-0.67 12.01 -0.34 11.02 0 10 C-0.99 9.319375 -0.99 9.319375 -2 8.625 C-2.66 8.08875 -3.32 7.5525 -4 7 C-4 6.34 -4 5.68 -4 5 C-2.02 5 -0.04 5 2 5 C1.01 2.525 1.01 2.525 0 0 Z M73 63 C73 64.65 73 66.3 73 68 C73.33 68 73.66 68 74 68 C74 66.35 74 64.7 74 63 C73.67 63 73.34 63 73 63 Z M37 70 C36.34 70.66 35.68 71.32 35 72 C36.92954827 76.14852879 39.12740101 79.45712791 42 83 C42.33 83.99 42.66 84.98 43 86 C44.32 85.67 45.64 85.34 47 85 C46.67 83.02 46.34 81.04 46 79 C45.34 79 44.68 79 44 79 C44 78.01 44 77.02 44 76 C43.34 76 42.68 76 42 76 C41.67 75.01 41.34 74.02 41 73 C40.34 73.66 39.68 74.32 39 75 C38.67 73.35 38.34 71.7 38 70 C37.67 70 37.34 70 37 70 Z M54 80 C55 83 55 83 55 83 Z M6 93 C5.86722656 93.79664062 5.73445313 94.59328125 5.59765625 95.4140625 C4 105 4 105 3.46875 107.95703125 C1.44064602 121.12280626 1.76373414 134.71884273 2 148 C2.01256836 148.77150391 2.02513672 149.54300781 2.03808594 150.33789062 C2.52696945 173.22562094 4.58484432 198.7063899 16 219 C16.99 219 17.98 219 19 219 C19.23074219 218.21496094 19.46148437 217.42992187 19.69921875 216.62109375 C21.68979008 210.20877899 23.65375811 205.14686539 28 200 C28.99 199.505 28.99 199.505 30 199 C29.54625 200.155 29.0925 201.31 28.625 202.5 C26.272814 209.44507999 25.75671778 216.7444119 25 224 C25.99 223.67 26.98 223.34 28 223 C28 222.34 28 221.68 28 221 C28.66 221 29.32 221 30 221 C30 220.34 30 219.68 30 219 C31.98 218.01 31.98 218.01 34 217 C34 216.34 34 215.68 34 215 C37.81300782 218.2870757 39.22972246 221.39727838 41 226 C44.124642 225.3453387 44.124642 225.3453387 45.0703125 222.9375 C45.41835937 221.968125 45.76640625 220.99875 46.125 220 C46.55039063 218.82953125 46.97578125 217.6590625 47.4140625 216.453125 C47.65801758 215.76541016 47.90197266 215.07769531 48.15332031 214.36914062 C49.13242954 211.62944167 50.14016305 208.90097295 51.1484375 206.171875 C54.81807241 196.18269868 58.35747852 186.21347418 61.26220703 175.97412109 C64.69047892 163.95607455 68.98964263 152.49413093 74.484375 141.26953125 C75.89813397 138.21974708 77.0069038 135.20809018 78 132 C76.35 132.33 74.7 132.66 73 133 C72.67 134.32 72.34 135.64 72 137 C71.071875 137.0825 70.14375 137.165 69.1875 137.25 C65.39437606 138.14249975 65.19196328 138.98605048 63 142 C59.8125 143.25 59.8125 143.25 57 144 C56.18987885 134.6836068 59.95438567 127.97576842 65.75 120.875 C67.15448235 119.23945765 68.56698962 117.61060569 70 116 C69.01 115.34 68.02 114.68 67 114 C66.46890625 114.34933594 65.9378125 114.69867188 65.390625 115.05859375 C64.33101562 115.74115234 64.33101562 115.74115234 63.25 116.4375 C62.55390625 116.88996094 61.8578125 117.34242187 61.140625 117.80859375 C59.03339801 118.98141169 57.33479763 119.46976924 55 120 C53.3255761 120.6469365 51.65697379 121.30959426 50 122 C51.54440043 113.99853489 53.87949857 108.51582538 60 103 C60.66 102.67 61.32 102.34 62 102 C62 101.34 62 100.68 62 100 C60.948125 99.87625 59.89625 99.7525 58.8125 99.625 C55.51979211 99.08521182 53.04368966 98.26820402 50 97 C49.01 97 48.02 97 47 97 C47.33 96.01 47.66 95.02 48 94 C46.16299211 93.22757731 46.16299211 93.22757731 44 93 C43.01 93.99 42.02 94.98 41 96 C41.99 99.63 42.98 103.26 44 107 C43.01 107 42.02 107 41 107 C40.505 104.525 40.505 104.525 40 102 C39.34 102 38.68 102 38 102 C38.495 107.445 38.495 107.445 39 113 C38.01 113 37.02 113 36 113 C35.95101562 113.63808594 35.90203125 114.27617188 35.8515625 114.93359375 C35.77679688 115.75988281 35.70203125 116.58617188 35.625 117.4375 C35.55539063 118.26121094 35.48578125 119.08492187 35.4140625 119.93359375 C35.27742188 120.61550781 35.14078125 121.29742187 35 122 C34.01 122.495 34.01 122.495 33 123 C33 125.97 33 128.94 33 132 C31.35 130.68 29.7 129.36 28 128 C26.02 132.95 24.04 137.9 22 143 C21.01 139.535 21.01 139.535 20 136 C19.01 136 18.02 136 17 136 C17.96355353 123.33029613 17.96355353 123.33029613 19 118 C18.01 118 17.02 118 16 118 C16.515625 117.05125 17.03125 116.1025 17.5625 115.125 C18.036875 114.09375 18.51125 113.0625 19 112 C18.67 111.34 18.34 110.68 18 110 C17.21625 110.969375 16.4325 111.93875 15.625 112.9375 C14.08711295 114.83962346 13.20740087 115.89629957 11 117 C11.47859241 115.39566191 11.95789558 113.79153584 12.4375 112.1875 C12.70433594 111.29417969 12.97117187 110.40085937 13.24609375 109.48046875 C13.80387873 107.64526945 14.39344575 105.81966274 15 104 C14.34 104 13.68 104 13 104 C13 103.34 13 102.68 13 102 C11.68 102.33 10.36 102.66 9 103 C9.66 101.35 10.32 99.7 11 98 C8.525 99.485 8.525 99.485 6 101 C6.515625 100.05125 7.03125 99.1025 7.5625 98.125 C8.036875 97.09375 8.51125 96.0625 9 95 C8.67 94.34 8.34 93.68 8 93 C7.34 93 6.68 93 6 93 Z M133 113 C133.33 113.99 133.66 114.98 134 116 C134.33 115.01 134.66 114.02 135 113 C134.34 113 133.68 113 133 113 Z M19 116 C20 118 20 118 20 118 Z M135 116 C136 118 136 118 136 118 Z M137 118 C137 118.66 137 119.32 137 120 C137.66 120 138.32 120 139 120 C139 119.34 139 118.68 139 118 C138.34 118 137.68 118 137 118 Z M141 121 C140.67 121.66 140.34 122.32 140 123 C140.99 123.99 141.98 124.98 143 126 C142.67 124.35 142.34 122.7 142 121 C141.67 121 141.34 121 141 121 Z M80 127 C80.33 127.66 80.66 128.32 81 129 C81.33 128.34 81.66 127.68 82 127 C81.34 127 80.68 127 80 127 Z M146 126 C146 126.66 146 127.32 146 128 C145.01 127.67 144.02 127.34 143 127 C143.66 128.65 144.32 130.3 145 132 C146.32 132 147.64 132 149 132 C149 130.68 149 129.36 149 128 C148.34 128 147.68 128 147 128 C146.67 127.34 146.34 126.68 146 126 Z M34 220 C33.67 221.98 33.34 223.96 33 226 C33.99 226 34.98 226 36 226 C35.67 224.02 35.34 222.04 35 220 C34.67 220 34.34 220 34 220 Z M23 225 C24 227 24 227 24 227 Z " fill="#444543" transform="translate(79,0)"/>
<path d="M0 0 C4.95 0 9.9 0 15 0 C15 60.06 15 120.12 15 182 C-84.16112532 182 -84.16112532 182 -94.6875 172.47265625 C-103.41293003 163.20188684 -104.40042293 151.36534875 -104.2109375 139.23828125 C-103.89000253 130.24615873 -100.83557818 122.86074732 -95 116 C-82.68595676 104.53692723 -67.03692364 104.68318061 -51.07421875 104.8046875 C-49.1182074 104.80770874 -49.1182074 104.80770874 -47.12268066 104.81079102 C-42.31091733 104.82115425 -37.49920465 104.84907573 -32.6875 104.875 C-16.5071875 104.936875 -16.5071875 104.936875 0 105 C0 70.35 0 35.7 0 0 Z M-84 126 C-85.66823483 128.2665683 -86.76745022 130.44008892 -88 133 C-88.33 133.66 -88.66 134.32 -89 135 C-89.15173086 137.92957281 -89.23145226 140.81945745 -89.25 143.75 C-89.270625 144.54921875 -89.29125 145.3484375 -89.3125 146.171875 C-89.3523723 152.23246398 -88.29947352 156.32832788 -84.23828125 161.046875 C-83.60277344 161.60890625 -82.96726562 162.1709375 -82.3125 162.75 C-81.37857422 163.60851562 -81.37857422 163.60851562 -80.42578125 164.484375 C-72.55118142 169.40441483 -62.82896886 168.2583897 -53.90625 168.1953125 C-52.34826846 168.19157684 -50.79028455 168.18873248 -49.2322998 168.18673706 C-45.15524677 168.17914408 -41.07833892 168.15953344 -37.00134277 168.1373291 C-32.0970052 168.11315565 -27.19261877 168.10406902 -22.28823853 168.09242249 C-14.85872508 168.07310602 -7.42952944 168.03475352 0 168 C0 152.16 0 136.32 0 120 C-11.86620152 119.94175249 -11.86620152 119.94175249 -23.73242188 119.90234375 C-28.5777631 119.89042463 -33.42302817 119.87637972 -38.26831055 119.84912109 C-42.17812493 119.82726485 -46.08785755 119.81540463 -49.99772835 119.81024551 C-51.48353422 119.80657257 -52.96933602 119.79940069 -54.45510674 119.78853989 C-70.07219555 119.63395298 -70.07219555 119.63395298 -84 126 Z " fill="#444543" transform="translate(571,29)"/>
<path d="M0 0 C7.8957616 6.63521019 10.98702586 14.91766261 12.2265625 24.87109375 C12.3087557 27.18496643 12.34446469 29.5008342 12.34008789 31.81616211 C12.34023392 32.47067352 12.34037994 33.12518494 12.3405304 33.79953003 C12.33984051 35.93670102 12.33209196 38.07378197 12.32421875 40.2109375 C12.32235128 41.70308891 12.32092893 43.19524094 12.31993103 44.68739319 C12.31613175 48.59507979 12.30632385 52.50272861 12.29522705 56.41040039 C12.284957 60.40575652 12.28042147 64.40111882 12.27539062 68.39648438 C12.26469901 76.2213733 12.24712346 84.0462234 12.2265625 91.87109375 C6.9465625 91.87109375 1.6665625 91.87109375 -3.7734375 91.87109375 C-3.7734375 79.33109375 -3.7734375 66.79109375 -3.7734375 53.87109375 C-20.2734375 53.87109375 -36.7734375 53.87109375 -53.7734375 53.87109375 C-53.7734375 66.41109375 -53.7734375 78.95109375 -53.7734375 91.87109375 C-59.0534375 91.87109375 -64.3334375 91.87109375 -69.7734375 91.87109375 C-69.84161402 83.49027617 -69.89648216 75.10967953 -69.92887402 66.72865772 C-69.944432 62.83568204 -69.9654861 58.94290832 -69.99975586 55.05004883 C-70.03270627 51.28284958 -70.05036438 47.51584276 -70.05806923 43.74851036 C-70.06354954 42.32181462 -70.07424806 40.89512764 -70.09062767 39.4685154 C-70.22804695 26.98647801 -69.87853331 13.25211561 -60.76171875 3.78125 C-56.42784533 -0.28773472 -52.50556154 -3.28643781 -46.7734375 -5.12890625 C-46.16757812 -5.33128906 -45.56171875 -5.53367187 -44.9375 -5.7421875 C-30.70394172 -9.75048839 -12.41607945 -8.10887273 0 0 Z M-49.7109375 13.68359375 C-55.24938518 22.24301289 -53.7734375 29.41769622 -53.7734375 39.87109375 C-37.2734375 39.87109375 -20.7734375 39.87109375 -3.7734375 39.87109375 C-2.85656044 24.60069273 -2.85656044 24.60069273 -9.1640625 12.296875 C-16.11103205 5.91663192 -24.58993269 6.36258946 -33.3984375 6.55859375 C-40.07833361 6.89882615 -45.09632751 8.76573796 -49.7109375 13.68359375 Z " fill="#444543" transform="translate(835.7734375,119.12890625)"/>
<path d="M0 0 C7.90298859 7.19929782 9.97916709 17.63319708 10.48719788 27.90834045 C10.54260796 31.90275988 10.53815507 35.89226186 10.5078125 39.88671875 C10.50407297 41.35073145 10.50123045 42.81474669 10.49923706 44.27876282 C10.49167447 48.09438229 10.47209129 51.90984459 10.4498291 55.72540283 C10.42920988 59.6339709 10.4202013 63.54256486 10.41015625 67.45117188 C10.38883681 75.09252718 10.35371681 82.73372136 10.3125 90.375 C5.3625 90.375 0.4125 90.375 -4.6875 90.375 C-4.6875 77.835 -4.6875 65.295 -4.6875 52.375 C-21.5175 52.375 -38.3475 52.375 -55.6875 52.375 C-55.6875 64.915 -55.6875 77.455 -55.6875 90.375 C-60.9675 90.375 -66.2475 90.375 -71.6875 90.375 C-71.75562437 81.84652815 -71.81051524 73.31827243 -71.84293652 64.78960037 C-71.85850714 60.82821692 -71.87958529 56.86703134 -71.91381836 52.90576172 C-71.94672247 49.07372885 -71.96441747 45.24188476 -71.97213173 41.40972137 C-71.97762014 39.95707991 -71.98833537 38.50444727 -72.00469017 37.05188751 C-72.1351063 24.97443966 -71.7446963 11.76226562 -62.93359375 2.5390625 C-46.65797551 -12.55808631 -17.63677373 -13.42670516 0 0 Z M-51.625 12.25 C-57.41629234 21.02468536 -55.6875 27.00605535 -55.6875 38.375 C-38.8575 38.375 -22.0275 38.375 -4.6875 38.375 C-4.41181886 24.4107676 -4.41181886 24.4107676 -9.875 11.9375 C-16.03108836 6.3286195 -21.90563112 4.68538567 -30.125 4.875 C-31.38014404 4.89312744 -31.38014404 4.89312744 -32.66064453 4.91162109 C-40.33350287 5.15893925 -46.26980261 6.45235041 -51.625 12.25 Z " fill="#444543" transform="translate(662.6875,120.625)"/>
<path d="M0 0 C8.88135495 8.88135495 10.6138866 21.76709403 10.66077137 33.82618237 C10.65221239 35.89082778 10.6291725 37.95500909 10.60546875 40.01953125 C10.59985608 41.48068297 10.59559391 42.94184043 10.59260559 44.40299988 C10.58128796 48.20224285 10.55193806 52.00112794 10.51849365 55.80023193 C10.48750621 59.69554812 10.47403974 63.59092355 10.45898438 67.48632812 C10.42705193 75.0952322 10.37439572 82.70376986 10.3125 90.3125 C5.0325 90.3125 -0.2475 90.3125 -5.6875 90.3125 C-5.6875 77.7725 -5.6875 65.2325 -5.6875 52.3125 C-22.5175 52.3125 -39.3475 52.3125 -56.6875 52.3125 C-56.6875 64.8525 -56.6875 77.3925 -56.6875 90.3125 C-61.6375 90.3125 -66.5875 90.3125 -71.6875 90.3125 C-71.73285862 81.74948979 -71.76947777 73.18657451 -71.79112434 64.62347603 C-71.80151864 60.6463992 -71.81559733 56.66940951 -71.83837891 52.69238281 C-71.86026382 48.84740224 -71.87210128 45.00250499 -71.87725449 41.15746689 C-71.88092237 39.69760707 -71.88808402 38.23775131 -71.89896011 36.7779274 C-71.99490563 23.35414073 -71.5095543 11.30937561 -62 1.0625 C-57.95334522 -2.75934063 -53.95019914 -4.95454881 -48.6875 -6.6875 C-48.03652344 -6.91179687 -47.38554687 -7.13609375 -46.71484375 -7.3671875 C-30.92322179 -11.80953202 -13.65777106 -8.57580973 0 0 Z M-52.65625 13.43359375 C-57.01186195 21.36938674 -56.6875 29.32231219 -56.6875 38.3125 C-39.8575 38.3125 -23.0275 38.3125 -5.6875 38.3125 C-4.77062294 23.04209898 -4.77062294 23.04209898 -11.078125 10.73828125 C-16.95168826 5.3438771 -23.50899047 4.94937659 -31.0625 4.9375 C-31.87460937 4.91300781 -32.68671875 4.88851562 -33.5234375 4.86328125 C-41.118866 4.82676477 -47.95332255 7.09417466 -52.65625 13.43359375 Z " fill="#444543" transform="translate(452.6875,120.6875)"/>
<path d="M0 0 C6.23393176 5.70674937 8.94046326 12.23286583 10.09765625 20.50390625 C10.18192277 22.87168734 10.21545831 25.24156362 10.21118164 27.61083984 C10.21132767 28.29446594 10.21147369 28.97809204 10.21162415 29.68243408 C10.21093233 31.92243724 10.20317447 34.16235528 10.1953125 36.40234375 C10.19344572 37.96318517 10.19202304 39.52402717 10.19102478 41.08486938 C10.18722008 45.17834105 10.17740741 49.27177682 10.1663208 53.36523438 C10.15606253 57.54817215 10.15151772 61.73111576 10.14648438 65.9140625 C10.13578319 74.11069533 10.1182031 82.30729218 10.09765625 90.50390625 C5.14765625 90.50390625 0.19765625 90.50390625 -4.90234375 90.50390625 C-4.90234375 77.96390625 -4.90234375 65.42390625 -4.90234375 52.50390625 C-21.73234375 52.50390625 -38.56234375 52.50390625 -55.90234375 52.50390625 C-55.90234375 65.04390625 -55.90234375 77.58390625 -55.90234375 90.50390625 C-61.18234375 90.50390625 -66.46234375 90.50390625 -71.90234375 90.50390625 C-71.94789916 82.93995589 -71.98443246 75.37605822 -72.00596809 67.81200314 C-72.01631475 64.29803728 -72.0303025 60.78417179 -72.05322266 57.27026367 C-72.07952539 53.21141714 -72.08889167 49.15267261 -72.09765625 45.09375 C-72.10797882 43.85874252 -72.11830139 42.62373505 -72.12893677 41.3513031 C-72.130706 27.29565172 -71.8412231 12.02444937 -61.7890625 1.13671875 C-46.06271191 -12.47324925 -16.39604427 -12.8946303 0 0 Z M-51.90234375 13.50390625 C-56.32765004 22.51256548 -55.90234375 27.61114631 -55.90234375 38.50390625 C-39.07234375 38.50390625 -22.24234375 38.50390625 -4.90234375 38.50390625 C-4.39457353 22.73103904 -4.39457353 22.73103904 -11.21484375 10.62890625 C-17.3603672 5.76965515 -22.80287859 5.02085698 -30.40234375 5.12890625 C-31.21832031 5.11730469 -32.03429687 5.10570313 -32.875 5.09375 C-40.86216406 5.13221146 -46.669224 7.107871 -51.90234375 13.50390625 Z " fill="#444543" transform="translate(1013.90234375,120.49609375)"/>
<path d="M0 0 C8.9100174 8.9100174 9.02356636 19.99262273 9.11352539 31.94018555 C9.11336918 34.50570206 9.10784654 37.07122247 9.09765625 39.63671875 C9.09578608 41.01105192 9.09436502 42.38538577 9.09336853 43.75971985 C9.08959042 47.33855095 9.07980163 50.91734004 9.06866455 54.49615479 C9.05834796 58.16344637 9.05384918 61.83074489 9.04882812 65.49804688 C9.03817405 72.66538575 9.02061671 79.83268159 9 87 C2.73 87 -3.54 87 -10 87 C-10.0093457 85.00179199 -10.01869141 83.00358398 -10.02832031 80.94482422 C-10.0621396 74.3309389 -10.11771582 67.71736397 -10.18390274 61.10372734 C-10.22335435 57.09517696 -10.25555394 53.08684548 -10.27099609 49.078125 C-10.28617832 45.20694588 -10.32065058 41.33636864 -10.36830902 37.46545792 C-10.38310688 35.99119432 -10.3910401 34.51684479 -10.39188385 33.04250717 C-10.3942603 30.97153874 -10.42138889 28.90222465 -10.45410156 26.83154297 C-10.46298401 25.65461884 -10.47186646 24.4776947 -10.48101807 23.2651062 C-11.25605171 18.3890845 -14.06339597 14.02815695 -18 11 C-23.96026707 8.23792502 -30.51175161 7.90961401 -36.76171875 9.86328125 C-39.20886434 10.84571196 -41.60200726 11.90440332 -44 13 C-44.99 13.33 -45.98 13.66 -47 14 C-48.08742694 16.21433941 -48.08742694 16.21433941 -49 19 C-49.5050708 19.92498291 -50.0101416 20.84996582 -50.53051758 21.80297852 C-52.99854015 27.56019782 -52.48142959 33.87382366 -52.51171875 40.02734375 C-52.52858599 41.38499047 -52.54673896 42.74262177 -52.56611633 44.10023499 C-52.61340123 47.65275247 -52.64334882 51.20520741 -52.66955566 54.75793457 C-52.69947062 58.39148303 -52.74596302 62.02481641 -52.79101562 65.65820312 C-52.87680346 72.77202547 -52.94272251 79.88588261 -53 87 C-59.27 87 -65.54 87 -72 87 C-72 56.64 -72 26.28 -72 -5 C-66.39 -5 -60.78 -5 -55 -5 C-54.67 -2.03 -54.34 0.94 -54 4 C-53.01 3.0925 -52.02 2.185 -51 1.25 C-37.09212716 -10.61094801 -14.93457641 -10.06625948 0 0 Z " fill="#444543" transform="translate(928,124)"/>
</svg>
